<svg width="594" height="208" viewBox="0 0 594 208" fill="none" xmlns="http://www.w3.org/2000/svg">
<path d="M99.4904 6.16V5.16H99.0133L98.7131 5.5308L99.4904 6.16ZM1.57037 127.12L0.793129 126.491L0.570374 126.766V127.12H1.57037ZM1.57037 170.32H0.570374V171.32H1.57037V170.32ZM100.93 170.32H101.93V169.32H100.93V170.32ZM100.93 202H99.9304V203H100.93V202ZM151.33 202V203H152.33V202H151.33ZM151.33 170.32V169.32H150.33V170.32H151.33ZM177.25 170.32V171.32H178.25V170.32H177.25ZM177.25 127.12H178.25V126.12H177.25V127.12ZM151.33 127.12H150.33V128.12H151.33V127.12ZM151.33 6.16H152.33V5.16H151.33V6.16ZM100.93 127.12V128.12H101.93V127.12H100.93ZM54.5624 127.12L53.785 126.491L52.467 128.12H54.5624V127.12ZM100.93 69.808H101.93V66.9821L100.153 69.179L100.93 69.808ZM98.7131 5.5308L0.793129 126.491L2.34762 127.749L100.268 6.7892L98.7131 5.5308ZM0.570374 127.12V170.32H2.57037V127.12H0.570374ZM1.57037 171.32H100.93V169.32H1.57037V171.32ZM99.9304 170.32V202H101.93V170.32H99.9304ZM100.93 203H151.33V201H100.93V203ZM152.33 202V170.32H150.33V202H152.33ZM151.33 171.32H177.25V169.32H151.33V171.32ZM178.25 170.32V127.12H176.25V170.32H178.25ZM177.25 126.12H151.33V128.12H177.25V126.12ZM152.33 127.12V6.16H150.33V127.12H152.33ZM151.33 5.16H99.4904V7.16H151.33V5.16ZM100.93 126.12H54.5624V128.12H100.93V126.12ZM55.3398 127.749L101.708 70.437L100.153 69.179L53.785 126.491L55.3398 127.749ZM99.9304 69.808V127.12H101.93V69.808H99.9304ZM207.279 104.08C207.279 132.158 214.007 157.964 228.878 176.772C243.778 195.616 266.763 207.32 298.999 207.32V205.32C267.299 205.32 244.923 193.84 230.447 175.532C215.943 157.188 209.279 131.874 209.279 104.08H207.279ZM298.999 207.32C331.235 207.32 354.219 195.616 369.119 176.772C383.991 157.964 390.719 132.158 390.719 104.08H388.719C388.719 131.874 382.055 157.188 367.55 175.532C353.074 193.84 330.699 205.32 298.999 205.32V207.32ZM390.719 104.08C390.719 76.0017 383.991 50.1959 369.119 31.3878C354.219 12.5438 331.235 0.839985 298.999 0.839985V2.83998C330.699 2.83998 353.074 14.3202 367.55 32.6282C382.055 50.9721 388.719 76.2862 388.719 104.08H390.719ZM298.999 0.839985C266.763 0.839985 243.778 12.5438 228.878 31.3878C214.007 50.1959 207.279 76.0017 207.279 104.08H209.279C209.279 76.2862 215.943 50.9721 230.447 32.6282C244.923 14.3202 267.299 2.83998 298.999 2.83998V0.839985ZM335.439 104.08C335.439 122.875 332.491 136.678 326.496 145.757C320.555 154.756 311.536 159.24 298.999 159.24V161.24C312.094 161.24 321.795 156.508 328.165 146.859C334.483 137.29 337.439 123.013 337.439 104.08H335.439ZM298.999 159.24C286.462 159.24 277.443 154.756 271.501 145.757C265.507 136.678 262.559 122.875 262.559 104.08H260.559C260.559 123.013 263.515 137.29 269.832 146.859C276.203 156.508 285.904 161.24 298.999 161.24V159.24ZM262.559 104.08C262.559 85.2847 265.507 71.4825 271.501 62.403C277.443 53.4039 286.462 48.92 298.999 48.92V46.92C285.904 46.92 276.203 51.6521 269.832 61.301C263.515 70.8695 260.559 85.1473 260.559 104.08H262.559ZM298.999 48.92C311.536 48.92 320.555 53.4039 326.496 62.403C332.491 71.4825 335.439 85.2847 335.439 104.08H337.439C337.439 85.1473 334.483 70.8695 328.165 61.301C321.795 51.6521 312.094 46.92 298.999 46.92V48.92ZM515.209 6.16V5.16H514.732L514.432 5.5308L515.209 6.16ZM417.289 127.12L416.512 126.491L416.289 126.766V127.12H417.289ZM417.289 170.32H416.289V171.32H417.289V170.32ZM516.649 170.32H517.649V169.32H516.649V170.32ZM516.649 202H515.649V203H516.649V202ZM567.049 202V203H568.049V202H567.049ZM567.049 170.32V169.32H566.049V170.32H567.049ZM592.969 170.32V171.32H593.969V170.32H592.969ZM592.969 127.12H593.969V126.12H592.969V127.12ZM567.049 127.12H566.049V128.12H567.049V127.12ZM567.049 6.16H568.049V5.16H567.049V6.16ZM516.649 127.12V128.12H517.649V127.12H516.649ZM470.281 127.12L469.504 126.491L468.186 128.12H470.281V127.12ZM516.649 69.808H517.649V66.9821L515.872 69.179L516.649 69.808ZM514.432 5.5308L416.512 126.491L418.066 127.749L515.986 6.7892L514.432 5.5308ZM416.289 127.12V170.32H418.289V127.12H416.289ZM417.289 171.32H516.649V169.32H417.289V171.32ZM515.649 170.32V202H517.649V170.32H515.649ZM516.649 203H567.049V201H516.649V203ZM568.049 202V170.32H566.049V202H568.049ZM567.049 171.32H592.969V169.32H567.049V171.32ZM593.969 170.32V127.12H591.969V170.32H593.969ZM592.969 126.12H567.049V128.12H592.969V126.12ZM568.049 127.12V6.16H566.049V127.12H568.049ZM567.049 5.16H515.209V7.16H567.049V5.16ZM516.649 126.12H470.281V128.12H516.649V126.12ZM471.059 127.749L517.427 70.437L515.872 69.179L469.504 126.491L471.059 127.749ZM515.649 69.808V127.12H517.649V69.808H515.649Z" fill="#38B863"/>
</svg>
