<svg width="64" height="52" viewBox="0 0 64 52" fill="none" xmlns="http://www.w3.org/2000/svg">
<path d="M57.6 45.95H58.75V44.8V3.2C58.75 2.6563 58.966 2.13488 59.3504 1.75043C59.7349 1.36598 60.2563 1.15 60.8 1.15C61.3437 1.15 61.8651 1.36598 62.2496 1.75043C62.634 2.13488 62.85 2.6563 62.85 3.2V48C62.85 48.5437 62.634 49.0651 62.2496 49.4496C61.8651 49.834 61.3437 50.05 60.8 50.05H3.2C2.6563 50.05 2.13488 49.834 1.75043 49.4496C1.36598 49.0651 1.15 48.5437 1.15 48V3.2C1.15 2.65631 1.36598 2.13488 1.75043 1.75043C2.13488 1.36598 2.65631 1.15 3.2 1.15H48C48.5437 1.15 49.0651 1.36598 49.4496 1.75043C49.834 2.13488 50.05 2.6563 50.05 3.2C50.05 3.7437 49.834 4.26512 49.4496 4.64957C49.0651 5.03402 48.5437 5.25 48 5.25H6.4H5.25V6.4V44.8V45.95H6.4H57.6ZM39.8 34.05C37.5589 34.05 35.4096 33.1597 33.8249 31.5751C32.2403 29.9904 31.35 27.8411 31.35 25.6C31.35 23.3589 32.2403 21.2096 33.8249 19.6249C35.4096 18.0403 37.5589 17.15 39.8 17.15C42.0411 17.15 44.1904 18.0403 45.7751 19.6249C47.3597 21.2096 48.25 23.3589 48.25 25.6C48.25 27.8411 47.3597 29.9904 45.7751 31.5751C44.1904 33.1597 42.0411 34.05 39.8 34.05ZM39.8 29.95C40.9537 29.95 42.0601 29.4917 42.8759 28.6759C43.6917 27.8601 44.15 26.7537 44.15 25.6C44.15 24.4463 43.6917 23.3399 42.8759 22.5241C42.0601 21.7083 40.9537 21.25 39.8 21.25C38.6463 21.25 37.5399 21.7083 36.7241 22.5241C35.9083 23.3399 35.45 24.4463 35.45 25.6C35.45 26.7537 35.9083 27.8601 36.7241 28.6759C37.5399 29.4917 38.6463 29.95 39.8 29.95Z" fill="#38B863" stroke="white" stroke-width="2.3"/>
</svg>
