<svg width="32" height="32" viewBox="0 0 32 32" fill="none" xmlns="http://www.w3.org/2000/svg">
<path d="M28.4444 28.9444H28.9444V28.4444V16C28.9444 15.6611 29.0791 15.3361 29.3187 15.0965C29.5583 14.8568 29.8833 14.7222 30.2222 14.7222C30.5611 14.7222 30.8861 14.8568 31.1257 15.0965C31.3654 15.3361 31.5 15.6611 31.5 16V30.2222C31.5 30.5611 31.3654 30.8861 31.1257 31.1258C30.8861 31.3654 30.5611 31.5 30.2222 31.5H1.77778C1.43889 31.5 1.11388 31.3654 0.874252 31.1257C0.634623 30.8861 0.5 30.5611 0.5 30.2222V1.77778C0.5 1.43889 0.634623 1.11388 0.874252 0.874252C1.11388 0.634623 1.43889 0.5 1.77778 0.5H23.1111C23.45 0.5 23.775 0.634623 24.0146 0.874252C24.2543 1.11388 24.3889 1.43889 24.3889 1.77778V23.1111C24.3889 23.45 24.2543 23.775 24.0146 24.0146C23.775 24.2543 23.45 24.3889 23.1111 24.3889C22.7722 24.3889 22.4472 24.2543 22.2076 24.0146C21.968 23.775 21.8333 23.45 21.8333 23.1111V3.55556V3.05556H21.3333H3.55556H3.05556V3.55556V28.4444V28.9444H3.55556H28.4444ZM8.88889 10.1667C8.55 10.1667 8.22499 10.032 7.98536 9.79241C7.74573 9.55278 7.61111 9.22778 7.61111 8.88889C7.61111 8.55 7.74573 8.22499 7.98536 7.98536C8.22499 7.74573 8.55 7.61111 8.88889 7.61111H16C16.3389 7.61111 16.6639 7.74573 16.9035 7.98536C17.1432 8.22499 17.2778 8.55 17.2778 8.88889C17.2778 9.22778 17.1432 9.55278 16.9035 9.79241C16.6639 10.032 16.3389 10.1667 16 10.1667H8.88889ZM8.88889 15.5C8.55 15.5 8.22499 15.3654 7.98536 15.1257C7.74573 14.8861 7.61111 14.5611 7.61111 14.2222C7.61111 13.8833 7.74573 13.5583 7.98536 13.3187C8.22499 13.0791 8.55 12.9444 8.88889 12.9444H16C16.3389 12.9444 16.6639 13.0791 16.9035 13.3187C17.1432 13.5583 17.2778 13.8833 17.2778 14.2222C17.2778 14.5611 17.1432 14.8861 16.9035 15.1257C16.6639 15.3654 16.3389 15.5 16 15.5H8.88889ZM8.88889 20.8333C8.55 20.8333 8.22499 20.6987 7.98536 20.4591C7.74573 20.2195 7.61111 19.8944 7.61111 19.5556C7.61111 19.2167 7.74573 18.8917 7.98536 18.652C8.22499 18.4124 8.55 18.2778 8.88889 18.2778H12.4444C12.7833 18.2778 13.1083 18.4124 13.348 18.652C13.5876 18.8917 13.7222 19.2167 13.7222 19.5556C13.7222 19.8944 13.5876 20.2195 13.348 20.4591C13.1083 20.6987 12.7833 20.8333 12.4444 20.8333H8.88889Z" fill="#E3FBF8" stroke="#199568"/>
</svg>
