<svg width="14" height="8" viewBox="0 0 14 8" fill="none" xmlns="http://www.w3.org/2000/svg">
<path d="M13 4L13.7071 4.70711C14.0976 4.31658 14.0976 3.68342 13.7071 3.29289L13 4ZM10.7071 0.292893C10.3166 -0.0976311 9.68342 -0.0976311 9.29289 0.292893C8.90237 0.683417 8.90237 1.31658 9.29289 1.70711L10.7071 0.292893ZM9.29289 6.29289C8.90237 6.68342 8.90237 7.31658 9.29289 7.70711C9.68342 8.09763 10.3166 8.09763 10.7071 7.70711L9.29289 6.29289ZM13.7071 3.29289L10.7071 0.292893L9.29289 1.70711L12.2929 4.70711L13.7071 3.29289ZM12.2929 3.29289L9.29289 6.29289L10.7071 7.70711L13.7071 4.70711L12.2929 3.29289Z" fill="white"/>
<path d="M1 4L0.292893 4.70711C-0.097631 4.31658 -0.097631 3.68342 0.292893 3.29289L1 4ZM3.29289 0.292893C3.68342 -0.0976311 4.31658 -0.0976311 4.70711 0.292893C5.09763 0.683417 5.09763 1.31658 4.70711 1.70711L3.29289 0.292893ZM4.70711 6.29289C5.09763 6.68342 5.09763 7.31658 4.70711 7.70711C4.31658 8.09763 3.68342 8.09763 3.29289 7.70711L4.70711 6.29289ZM0.292893 3.29289L3.29289 0.292893L4.70711 1.70711L1.70711 4.70711L0.292893 3.29289ZM1.70711 3.29289L4.70711 6.29289L3.29289 7.70711L0.292893 4.70711L1.70711 3.29289Z" fill="white"/>
</svg>
