<svg width="20" height="19" viewBox="0 0 20 19" fill="none" xmlns="http://www.w3.org/2000/svg">
<path d="M12.1768 3.23897L11.75 2.81219V3.41575V6.00175V6.00183C11.7501 6.18871 11.6804 6.36888 11.5545 6.50706C11.4287 6.64523 11.2558 6.73145 11.0697 6.74883L11.0697 6.74884C7.95306 7.04075 5.61486 7.92801 4.05626 9.47507C2.49338 11.0264 1.75 13.2053 1.75 16.0017C1.75 16.2007 1.67098 16.3914 1.53033 16.5321C1.38968 16.6727 1.19891 16.7517 1 16.7517C0.801087 16.7517 0.610322 16.6727 0.46967 16.5321C0.329018 16.3914 0.25 16.2007 0.25 16.0017C0.25 12.9004 1.09395 10.4675 2.7202 8.70042C4.34816 6.93149 6.78723 5.80021 10.0338 5.35745L10.25 5.32797V5.10975V1.00175C10.25 0.334253 11.0579 -0.000827635 11.5302 0.471525L19.5302 8.4715C19.5302 8.47151 19.5302 8.47152 19.5302 8.47153C19.6708 8.61217 19.7498 8.80289 19.7498 9.00175C19.7498 9.20061 19.6708 9.39133 19.5302 9.53197C19.5302 9.53198 19.5302 9.53199 19.5302 9.532L11.5302 17.532C11.0577 18.0045 10.25 17.67 10.25 17.0017V13.0017V12.7517H10H7C6.80109 12.7517 6.61032 12.6727 6.46967 12.5321C6.32902 12.3914 6.25 12.2007 6.25 12.0017C6.25 11.8028 6.32902 11.6121 6.46967 11.4714C6.61032 11.3308 6.80109 11.2517 7 11.2517H11C11.1989 11.2517 11.3897 11.3308 11.5303 11.4714C11.671 11.6121 11.75 11.8028 11.75 12.0017V14.5877V15.1913L12.1768 14.7645L17.7628 9.17852L17.9396 9.00175L17.7628 8.82497L12.1768 3.23897Z" fill="#184129" stroke="white" stroke-width="0.5"/>
</svg>
