<svg width="20" height="18" viewBox="0 0 20 18" fill="none" xmlns="http://www.w3.org/2000/svg">
<path d="M2.71028 16.0005H14.0003C14.2655 16.0005 14.5198 16.1059 14.7074 16.2934C14.8949 16.4809 15.0003 16.7353 15.0003 17.0005C15.0003 17.2657 14.8949 17.5201 14.7074 17.7076C14.5198 17.8951 14.2655 18.0005 14.0003 18.0005H1.00028C0.825693 18.0005 0.654138 17.9549 0.502674 17.8681C0.351211 17.7812 0.225118 17.6563 0.136936 17.5056C0.0487545 17.3549 0.00155693 17.1838 3.78643e-05 17.0092C-0.0014812 16.8346 0.0427312 16.6627 0.128278 16.5105L9.12828 0.510494C9.21521 0.35564 9.3418 0.226729 9.49506 0.137009C9.64831 0.0472901 9.82269 0 10.0003 0C10.1779 0 10.3522 0.0472901 10.5055 0.137009C10.6588 0.226729 10.7853 0.35564 10.8723 0.510494L19.8723 16.5105C20.0022 16.7418 20.035 17.0152 19.9634 17.2706C19.8917 17.526 19.7215 17.7425 19.4903 17.8725C19.259 18.0024 18.9856 18.0352 18.7302 17.9636C18.4747 17.8919 18.2582 17.7218 18.1283 17.4905L10.0003 3.04049L2.71028 16.0005ZM9.00028 8.00049C9.00028 7.73528 9.10563 7.48092 9.29317 7.29339C9.48071 7.10585 9.73506 7.00049 10.0003 7.00049C10.2655 7.00049 10.5198 7.10585 10.7074 7.29339C10.8949 7.48092 11.0003 7.73528 11.0003 8.00049V11.0005C11.0003 11.2657 10.8949 11.5201 10.7074 11.7076C10.5198 11.8951 10.2655 12.0005 10.0003 12.0005C9.73506 12.0005 9.48071 11.8951 9.29317 11.7076C9.10563 11.5201 9.00028 11.2657 9.00028 11.0005V8.00049ZM10.0003 15.0005C9.73506 15.0005 9.48071 14.8951 9.29317 14.7076C9.10563 14.5201 9.00028 14.2657 9.00028 14.0005C9.00028 13.7353 9.10563 13.4809 9.29317 13.2934C9.48071 13.1059 9.73506 13.0005 10.0003 13.0005C10.2655 13.0005 10.5198 13.1059 10.7074 13.2934C10.8949 13.4809 11.0003 13.7353 11.0003 14.0005C11.0003 14.2657 10.8949 14.5201 10.7074 14.7076C10.5198 14.8951 10.2655 15.0005 10.0003 15.0005Z" fill="#38B863"/>
</svg>
