<svg width="44" height="44" viewBox="0 0 44 44" fill="none" xmlns="http://www.w3.org/2000/svg">
<path d="M10.8889 8.66667V4.22222C10.8889 3.63285 11.123 3.06762 11.5398 2.65087C11.9565 2.23413 12.5217 2 13.1111 2H30.8889C31.4783 2 32.0435 2.23413 32.4602 2.65087C32.877 3.06762 33.1111 3.63285 33.1111 4.22222V8.66667H39.7778C40.3671 8.66667 40.9324 8.90079 41.3491 9.31754C41.7659 9.73429 42 10.2995 42 10.8889V19.7778C42 20.3671 41.7659 20.9324 41.3491 21.3491C40.9324 21.7659 40.3671 22 39.7778 22C39.1884 22 38.6232 21.7659 38.2064 21.3491C37.7897 20.9324 37.5556 20.3671 37.5556 19.7778V13.1111H6.44444V24.2222H15.7111C16.1702 22.921 17.0216 21.7943 18.148 20.9973C19.2744 20.2003 20.6202 19.7723 22 19.7723C23.3798 19.7723 24.7256 20.2003 25.852 20.9973C26.9784 21.7943 27.8298 22.921 28.2889 24.2222H37.5556C38.1449 24.2222 38.7102 24.4564 39.1269 24.8731C39.5437 25.2898 39.7778 25.8551 39.7778 26.4444V39.7778C39.7778 40.3671 39.5437 40.9324 39.1269 41.3491C38.7102 41.7659 38.1449 42 37.5556 42H6.44444C5.85507 42 5.28984 41.7659 4.8731 41.3491C4.45635 40.9324 4.22222 40.3671 4.22222 39.7778V33.1111C4.22222 32.5217 4.45635 31.9565 4.8731 31.5398C5.28984 31.123 5.85507 30.8889 6.44444 30.8889C7.03381 30.8889 7.59905 31.123 8.01579 31.5398C8.43254 31.9565 8.66667 32.5217 8.66667 33.1111V37.5556H35.3333V28.6667H28.2889C27.8298 29.9679 26.9784 31.0946 25.852 31.8916C24.7256 32.6886 23.3798 33.1166 22 33.1166C20.6202 33.1166 19.2744 32.6886 18.148 31.8916C17.0216 31.0946 16.1702 29.9679 15.7111 28.6667H4.22222C3.63285 28.6667 3.06762 28.4325 2.65087 28.0158C2.23413 27.599 2 27.0338 2 26.4444V10.8889C2 10.2995 2.23413 9.73429 2.65087 9.31754C3.06762 8.90079 3.63285 8.66667 4.22222 8.66667H10.8889ZM22 28.6667C22.5894 28.6667 23.1546 28.4325 23.5713 28.0158C23.9881 27.599 24.2222 27.0338 24.2222 26.4444C24.2222 25.8551 23.9881 25.2898 23.5713 24.8731C23.1546 24.4564 22.5894 24.2222 22 24.2222C21.4106 24.2222 20.8454 24.4564 20.4287 24.8731C20.0119 25.2898 19.7778 25.8551 19.7778 26.4444C19.7778 27.0338 20.0119 27.599 20.4287 28.0158C20.8454 28.4325 21.4106 28.6667 22 28.6667ZM15.3333 6.44444V8.66667H28.6667V6.44444H15.3333Z" fill="#38B863" stroke="white" stroke-width="3.2"/>
</svg>
