<svg width="70" height="70" viewBox="0 0 70 70" fill="none" xmlns="http://www.w3.org/2000/svg">
<rect x="12.5" y="22.5" width="45" height="13" fill="url(#paint0_linear)" stroke="white" stroke-width="9"/>
<path d="M17.2222 13.6667V6.55556C17.2222 5.61256 17.5968 4.70819 18.2636 4.0414C18.9304 3.3746 19.8348 3 20.7778 3H49.2222C50.1652 3 51.0696 3.3746 51.7364 4.0414C52.4032 4.70819 52.7778 5.61256 52.7778 6.55556V13.6667H63.4444C64.3874 13.6667 65.2918 14.0413 65.9586 14.7081C66.6254 15.3749 67 16.2792 67 17.2222V31.4444C67 32.3874 66.6254 33.2918 65.9586 33.9586C65.2918 34.6254 64.3874 35 63.4444 35C62.5015 35 61.5971 34.6254 60.9303 33.9586C60.2635 33.2918 59.8889 32.3874 59.8889 31.4444V20.7778H10.1111V38.5556H24.9378C25.6724 36.4737 27.0346 34.6709 28.8368 33.3957C30.639 32.1205 32.7923 31.4357 35 31.4357C37.2077 31.4357 39.361 32.1205 41.1632 33.3957C42.9654 34.6709 44.3276 36.4737 45.0622 38.5556H59.8889C60.8319 38.5556 61.7363 38.9302 62.403 39.597C63.0698 40.2638 63.4444 41.1681 63.4444 42.1111V63.4444C63.4444 64.3874 63.0698 65.2918 62.403 65.9586C61.7363 66.6254 60.8319 67 59.8889 67H10.1111C9.16812 67 8.26375 66.6254 7.59695 65.9586C6.93016 65.2918 6.55556 64.3874 6.55556 63.4444V52.7778C6.55556 51.8348 6.93016 50.9304 7.59695 50.2636C8.26375 49.5968 9.16812 49.2222 10.1111 49.2222C11.0541 49.2222 11.9585 49.5968 12.6253 50.2636C13.2921 50.9304 13.6667 51.8348 13.6667 52.7778V59.8889H56.3333V45.6667H45.0622C44.3276 47.7486 42.9654 49.5513 41.1632 50.8265C39.361 52.1017 37.2077 52.7865 35 52.7865C32.7923 52.7865 30.639 52.1017 28.8368 50.8265C27.0346 49.5513 25.6724 47.7486 24.9378 45.6667H6.55556C5.61256 45.6667 4.70819 45.2921 4.0414 44.6253C3.3746 43.9585 3 43.0541 3 42.1111V17.2222C3 16.2792 3.3746 15.3749 4.0414 14.7081C4.70819 14.0413 5.61256 13.6667 6.55556 13.6667H17.2222ZM35 45.6667C35.943 45.6667 36.8474 45.2921 37.5142 44.6253C38.181 43.9585 38.5556 43.0541 38.5556 42.1111C38.5556 41.1681 38.181 40.2638 37.5142 39.597C36.8474 38.9302 35.943 38.5556 35 38.5556C34.057 38.5556 33.1526 38.9302 32.4858 39.597C31.819 40.2638 31.4444 41.1681 31.4444 42.1111C31.4444 43.0541 31.819 43.9585 32.4858 44.6253C33.1526 45.2921 34.057 45.6667 35 45.6667ZM24.3333 10.1111V13.6667H45.6667V10.1111H24.3333Z" fill="#38B863" stroke="white" stroke-width="5.2"/>
<defs>
<linearGradient id="paint0_linear" x1="35" y1="18" x2="35" y2="40" gradientUnits="userSpaceOnUse">
<stop offset="0.265625" stop-color="#A2FFC7"/>
<stop offset="0.645833" stop-color="#E1FDEE"/>
</linearGradient>
</defs>
</svg>
