<svg width="50" height="40" viewBox="0 0 50 40" fill="none" xmlns="http://www.w3.org/2000/svg">
<path d="M45 35.9H45.9V35V2.5C45.9 2.07565 46.0686 1.66869 46.3686 1.36863C46.6687 1.06857 47.0757 0.9 47.5 0.9C47.9243 0.9 48.3313 1.06857 48.6314 1.36863C48.9314 1.66869 49.1 2.07565 49.1 2.5V37.5C49.1 37.9243 48.9314 38.3313 48.6314 38.6314C48.3313 38.9314 47.9243 39.1 47.5 39.1H2.5C2.07565 39.1 1.66869 38.9314 1.36863 38.6314C1.06857 38.3313 0.9 37.9243 0.9 37.5V2.5C0.9 2.07565 1.06857 1.66869 1.36863 1.36863C1.66869 1.06857 2.07565 0.9 2.5 0.9H37.5C37.9243 0.9 38.3313 1.06857 38.6314 1.36863C38.9314 1.66869 39.1 2.07565 39.1 2.5C39.1 2.92435 38.9314 3.33131 38.6314 3.63137C38.3313 3.93143 37.9243 4.1 37.5 4.1H5H4.1V5V35V35.9H5H45ZM31.0938 26.6C29.3433 26.6 27.6646 25.9046 26.4268 24.6669C25.1891 23.4292 24.4937 21.7504 24.4937 20C24.4937 18.2496 25.1891 16.5708 26.4268 15.3331C27.6646 14.0954 29.3433 13.4 31.0938 13.4C32.8442 13.4 34.5229 14.0954 35.7607 15.3331C36.9984 16.5708 37.6937 18.2496 37.6937 20C37.6937 21.7504 36.9984 23.4292 35.7607 24.6669C34.5229 25.9046 32.8442 26.6 31.0938 26.6ZM31.0938 23.4C31.9955 23.4 32.8603 23.0418 33.4979 22.4042C34.1355 21.7665 34.4938 20.9017 34.4938 20C34.4938 19.0983 34.1355 18.2335 33.4979 17.5958C32.8603 16.9582 31.9955 16.6 31.0938 16.6C30.192 16.6 29.3272 16.9582 28.6896 17.5958C28.052 18.2335 27.6938 19.0983 27.6938 20C27.6938 20.9017 28.052 21.7665 28.6896 22.4042C29.3272 23.0418 30.192 23.4 31.0938 23.4Z" fill="#38B863" stroke="white" stroke-width="1.8"/>
</svg>
