<svg width="77" height="69" viewBox="0 0 77 69" fill="none" xmlns="http://www.w3.org/2000/svg">
<path d="M5.5 32.5L5.5 22.5L58.5 22.5V32.5L5.5 32.5Z" fill="url(#paint0_linear)" stroke="white" stroke-width="7"/>
<path d="M57.6 62.95H58.75V61.8V20.2C58.75 19.6563 58.966 19.1349 59.3504 18.7504C59.7349 18.366 60.2563 18.15 60.8 18.15C61.3437 18.15 61.8651 18.366 62.2496 18.7504C62.634 19.1349 62.85 19.6563 62.85 20.2V65C62.85 65.5437 62.634 66.0651 62.2496 66.4496C61.8651 66.834 61.3437 67.05 60.8 67.05H3.2C2.6563 67.05 2.13488 66.834 1.75043 66.4496C1.36598 66.0651 1.15 65.5437 1.15 65V20.2C1.15 19.6563 1.36598 19.1349 1.75043 18.7504C2.13488 18.366 2.65631 18.15 3.2 18.15H48C48.5437 18.15 49.0651 18.366 49.4496 18.7504C49.834 19.1349 50.05 19.6563 50.05 20.2C50.05 20.7437 49.834 21.2651 49.4496 21.6496C49.0651 22.034 48.5437 22.25 48 22.25H6.4H5.25V23.4V61.8V62.95H6.4H57.6ZM39.8 51.05C37.5589 51.05 35.4096 50.1597 33.8249 48.5751C32.2403 46.9904 31.35 44.8411 31.35 42.6C31.35 40.3589 32.2403 38.2096 33.8249 36.6249C35.4096 35.0403 37.5589 34.15 39.8 34.15C42.0411 34.15 44.1904 35.0403 45.7751 36.6249C47.3597 38.2096 48.25 40.3589 48.25 42.6C48.25 44.8411 47.3597 46.9904 45.7751 48.5751C44.1904 50.1597 42.0411 51.05 39.8 51.05ZM39.8 46.95C40.9537 46.95 42.0601 46.4917 42.8759 45.6759C43.6917 44.8601 44.15 43.7537 44.15 42.6C44.15 41.4463 43.6917 40.3399 42.8759 39.5241C42.0601 38.7083 40.9537 38.25 39.8 38.25C38.6463 38.25 37.5399 38.7083 36.7241 39.5241C35.9083 40.3399 35.45 41.4463 35.45 42.6C35.45 43.7537 35.9083 44.8601 36.7241 45.6759C37.5399 46.4917 38.6463 46.95 39.8 46.95Z" fill="#38B863" stroke="white" stroke-width="2.3"/>
<circle cx="62" cy="15" r="15" fill="#38B863"/>
<path d="M65.532 11.916C65.532 10.082 63.964 9.27 61.962 9.27C60.814 9.27 59.666 9.564 58.812 10.054V12.434C59.75 11.804 60.828 11.51 61.612 11.51C62.578 11.51 63.082 11.79 63.082 12.322C63.082 12.868 62.55 13.05 61.864 13.036L60.548 13.022L60.534 15.192H62.158C62.942 15.192 63.46 15.416 63.46 15.976C63.46 16.676 62.648 16.956 61.724 16.97C60.73 16.984 59.792 16.844 58.644 16.186V18.566C59.806 19.028 60.786 19.21 61.934 19.21C63.936 19.21 65.924 18.482 65.924 16.396C65.924 15.024 65.112 14.254 64.062 13.932C65 13.61 65.532 12.91 65.532 11.916Z" fill="white"/>
<defs>
<linearGradient id="paint0_linear" x1="32" y1="19" x2="32" y2="36" gradientUnits="userSpaceOnUse">
<stop offset="0.265625" stop-color="#A2FFC7"/>
<stop offset="0.645833" stop-color="#E1FDEE"/>
</linearGradient>
</defs>
</svg>
