<svg width="70" height="70" viewBox="0 0 70 70" fill="none" xmlns="http://www.w3.org/2000/svg">
<path d="M28.5 35V35.1469L28.5086 35.2936L29.664 54.9344C26.9979 54.4153 24.116 53.482 21.8723 51.9073C12.9982 45.6795 12.9995 38.138 13 35.0684L13 35C13 24.7976 19.1782 16.6901 28.5 14.5532V35Z" fill="url(#paint0_linear)" stroke="white" stroke-width="10"/>
<path d="M38.2 28.6V6.2C38.2 5.35131 37.8629 4.53737 37.2627 3.93726C36.6626 3.33714 35.8487 3 35 3C17.3264 3 3 17.3264 3 35C3 52.6736 17.3264 67 35 67C52.6736 67 67 52.6736 67 35C67.0025 29.2308 65.4447 23.5683 62.4917 18.6121C59.5387 13.6559 55.3004 9.59049 50.2256 6.8464C49.4792 6.442 48.6027 6.35068 47.7889 6.59252C46.9752 6.83437 46.2908 7.38958 45.8864 8.136C45.482 8.88243 45.3907 9.75893 45.6325 10.5727C45.8744 11.3864 46.4296 12.0708 47.176 12.4752C52.5456 15.377 56.7018 20.1017 58.8951 25.7976C61.0884 31.4934 61.1745 37.7854 59.1379 43.5391C57.1013 49.2928 53.076 54.1296 47.7878 57.1772C42.4996 60.2248 36.2966 61.2828 30.2971 60.1603C24.2977 59.0379 18.8968 55.8088 15.0681 51.0555C11.2395 46.3021 9.2351 40.3372 9.41643 34.2364C9.59776 28.1356 11.9529 22.3003 16.0571 17.7827C20.1613 13.2651 25.7445 10.3626 31.8 9.5984V35C31.8 35.5943 31.9655 36.1768 32.2779 36.6823C32.5903 37.1879 33.0374 37.5964 33.5689 37.8622C34.1005 38.1279 34.6955 38.2404 35.2874 38.1871C35.8793 38.1337 36.4446 37.9166 36.92 37.56L49.72 27.96C50.0562 27.7079 50.3394 27.392 50.5535 27.0304C50.7676 26.6688 50.9084 26.2686 50.9678 25.8525C51.0273 25.4365 51.0042 25.0129 50.8999 24.6058C50.7956 24.1987 50.6121 23.8162 50.36 23.48C50.1079 23.1438 49.792 22.8606 49.4304 22.6465C49.0688 22.4324 48.6686 22.2916 48.2525 22.2322C47.8365 22.1727 47.4129 22.1958 47.0058 22.3001C46.5987 22.4044 46.2162 22.5879 45.88 22.84L38.2 28.6Z" fill="#38B863" stroke="white" stroke-width="4.5"/>
<defs>
<linearGradient id="paint0_linear" x1="21.5" y1="9" x2="21.5" y2="60.5003" gradientUnits="userSpaceOnUse">
<stop offset="0.265625" stop-color="#A2FFC7"/>
<stop offset="0.645833" stop-color="#E1FDEE"/>
</linearGradient>
</defs>
</svg>
