<svg width="44" height="44" viewBox="0 0 44 44" fill="none" xmlns="http://www.w3.org/2000/svg">
<path d="M24 18V4C24 3.46957 23.7893 2.96086 23.4142 2.58579C23.0391 2.21071 22.5304 2 22 2C10.954 2 2 10.954 2 22C2 33.046 10.954 42 22 42C33.046 42 42 33.046 42 22C42.0015 18.3942 41.0279 14.8552 39.1823 11.7575C37.3367 8.65992 34.6878 6.11906 31.516 4.404C31.0495 4.15125 30.5017 4.09417 29.9931 4.24533C29.4845 4.39648 29.0568 4.74348 28.804 5.21C28.5512 5.67652 28.4942 6.22433 28.6453 6.73293C28.7965 7.24153 29.1435 7.66925 29.61 7.922C32.966 9.7356 35.5636 12.6886 36.9344 16.2485C38.3053 19.8084 38.3591 23.7409 37.0862 27.337C35.8133 30.933 33.2975 33.956 29.9924 35.8608C26.6873 37.7655 22.8104 38.4268 19.0607 37.7252C15.3111 37.0237 11.9355 35.0055 9.54257 32.0347C7.14967 29.0638 5.89693 25.3358 6.01027 21.5227C6.1236 17.7097 7.59554 14.0627 10.1607 11.2392C12.7258 8.4157 16.2153 6.6016 20 6.124V22C20 22.3714 20.1034 22.7355 20.2987 23.0515C20.494 23.3674 20.7734 23.6227 21.1056 23.7889C21.4378 23.955 21.8097 24.0253 22.1796 23.9919C22.5495 23.9586 22.9029 23.8229 23.2 23.6L31.2 17.6C31.4101 17.4424 31.5871 17.245 31.7209 17.019C31.8548 16.793 31.9428 16.5428 31.9799 16.2828C32.017 16.0228 32.0026 15.7581 31.9374 15.5036C31.8722 15.2492 31.7576 15.0101 31.6 14.8C31.4424 14.5899 31.245 14.4129 31.019 14.2791C30.793 14.1452 30.5428 14.0572 30.2828 14.0201C30.0228 13.983 29.7581 13.9974 29.5036 14.0626C29.2492 14.1278 29.0101 14.2424 28.8 14.4L24 18Z" fill="#38B863" stroke="white" stroke-width="2.5"/>
</svg>
