<svg width="20" height="20" viewBox="0 0 20 20" fill="none" xmlns="http://www.w3.org/2000/svg">
<path d="M11.15 8.2L10.75 8.5V8V1C10.75 0.801088 10.671 0.610322 10.5303 0.46967C10.3897 0.329018 10.1989 0.25 10 0.25C4.61507 0.25 0.25 4.61507 0.25 10C0.25 15.3849 4.61507 19.75 10 19.75C15.3849 19.75 19.75 15.3849 19.75 10L19.75 9.99989C19.7507 8.2421 19.2761 6.51681 18.3764 5.00673C17.4767 3.49666 16.1853 2.25799 14.6391 1.42191L14.6389 1.42181C14.4639 1.32702 14.2585 1.30562 14.0678 1.3623C13.877 1.41899 13.7166 1.54913 13.6218 1.72409C13.527 1.89905 13.5056 2.1045 13.5623 2.29524C13.619 2.48599 13.7491 2.6464 13.9241 2.74119C15.6544 3.67634 16.9937 5.19891 17.7005 7.0344C18.4073 8.86996 18.4351 10.8977 17.7788 12.7519C17.1224 14.6061 15.8252 16.1648 14.121 17.147C12.4168 18.1291 10.4178 18.4701 8.48438 18.1083C6.55097 17.7466 4.81043 16.706 3.57659 15.1742C2.34275 13.6423 1.69681 11.72 1.75525 9.75395C1.81368 7.78786 2.57265 5.90734 3.89529 4.45148C5.21794 2.99563 7.01722 2.06023 8.9687 1.81397L9.25 1.77847V2.062V10C9.25 10.1393 9.28878 10.2758 9.36201 10.3943C9.43524 10.5128 9.54001 10.6085 9.66459 10.6708C9.78917 10.7331 9.92863 10.7595 10.0674 10.747C10.2061 10.7345 10.3386 10.6836 10.45 10.6L14.45 7.6C14.5288 7.54091 14.5952 7.46687 14.6454 7.38212C14.6955 7.29737 14.7285 7.20357 14.7425 7.10607C14.7564 7.00856 14.751 6.90927 14.7265 6.81386C14.7021 6.71845 14.6591 6.62879 14.6 6.55C14.5409 6.47121 14.4669 6.40483 14.3821 6.35464C14.2974 6.30446 14.2036 6.27147 14.1061 6.25754C14.0086 6.24361 13.9093 6.24902 13.8139 6.27346C13.7185 6.29791 13.6288 6.34091 13.55 6.4L11.15 8.2Z" fill="#686A7E" stroke="white" stroke-width="0.5"/>
</svg>
