<svg width="64" height="64" viewBox="0 0 64 64" fill="none" xmlns="http://www.w3.org/2000/svg">
<path d="M22.3678 56.3077L21.4276 58.1889H23.5307H46.208C46.8062 58.1889 47.3799 58.4265 47.8029 58.8495C48.2259 59.2725 48.4636 59.8462 48.4636 60.4444C48.4636 61.0427 48.2259 61.6164 47.8029 62.0394C47.3799 62.4624 46.8062 62.7 46.208 62.7H17.7785C17.3941 62.6998 17.0162 62.6014 16.6806 62.4141C16.345 62.2269 16.0628 61.9569 15.8608 61.63C15.6588 61.303 15.5437 60.9299 15.5264 60.5459C15.5091 60.162 15.5902 59.7801 15.762 59.4363C15.762 59.4363 15.762 59.4362 15.762 59.4362L20.2988 50.359L21.2391 48.4778H19.136H3.55556C2.95734 48.4778 2.38363 48.2401 1.96064 47.8171C1.53764 47.3941 1.3 46.8204 1.3 46.2222V3.55556C1.3 2.95734 1.53764 2.38364 1.96064 1.96064C2.38364 1.53764 2.95734 1.3 3.55556 1.3H60.4444C61.0427 1.3 61.6164 1.53764 62.0394 1.96064C62.4624 2.38363 62.7 2.95734 62.7 3.55556V46.2222C62.7 46.8204 62.4624 47.3941 62.0394 47.8171C61.6164 48.2401 61.0427 48.4778 60.4444 48.4778H39.1111C38.5129 48.4778 37.9392 48.2401 37.5162 47.8171C37.0932 47.3941 36.8556 46.8204 36.8556 46.2222C36.8556 45.624 37.0932 45.0503 37.5162 44.6273C37.9392 44.2043 38.5129 43.9667 39.1111 43.9667H56.8889H58.1889V42.6667V7.11111V5.81111H56.8889H7.11111H5.81111V7.11111V42.6667V43.9667H7.11111H24.8882C25.2725 43.9669 25.6504 44.0653 25.986 44.2525C26.3217 44.4398 26.6039 44.7097 26.8059 45.0367C27.0079 45.3636 27.123 45.7368 27.1403 46.1207C27.1576 46.5047 27.0765 46.8867 26.9047 47.2305L22.3678 56.3077Z" fill="#38B863" stroke="white" stroke-width="2.6"/>
</svg>
