<svg width="20" height="24" viewBox="0 0 20 24" fill="none" xmlns="http://www.w3.org/2000/svg">
<path d="M9.11787 23.4283L9.11782 23.4283C6.77898 22.11 4.55745 19.79 2.91976 17.2527C1.27943 14.7113 0.25 11.9912 0.25 9.88656C0.25 4.34653 4.67473 0.858398 9.59985 0.858398C14.525 0.858398 18.9497 4.34653 18.9497 9.88656C18.9497 11.9912 17.9203 14.7113 16.28 17.2527C14.6423 19.79 12.4207 22.11 10.0819 23.4283L10.0818 23.4283C9.93609 23.5105 9.76973 23.5541 9.59985 23.5541C9.42998 23.5541 9.26362 23.5105 9.11787 23.4283ZM9.46258 21.4821L9.59988 21.5723L9.73717 21.4821C11.6805 20.2047 13.5039 18.1588 14.841 16.019C16.1744 13.8851 17.0497 11.6167 17.0497 9.88656C17.0497 5.42598 13.5271 2.67794 9.59985 2.67794C5.6726 2.67794 2.14996 5.42598 2.14996 9.88656C2.14996 11.6167 3.02533 13.8854 4.35871 16.0194C5.69584 18.1594 7.51919 20.2053 9.46258 21.4821ZM9.30116 5.50626L9.30119 5.50626C10.3033 5.44309 11.2982 5.70152 12.1314 6.24031C12.9644 6.77902 13.5885 7.56734 13.9086 8.48163C14.2287 9.39579 14.2275 10.3862 13.9053 11.2996C13.5831 12.2133 12.9572 13.0002 12.1229 13.5371C11.2885 14.0741 10.2929 14.3304 9.29101 14.2651C8.28911 14.1997 7.33868 13.8166 6.58705 13.1766C5.83555 12.5368 5.32503 11.6763 5.1328 10.7296C4.9406 9.78303 5.07696 8.80136 5.52143 7.93653C5.57629 7.82988 5.65266 7.73414 5.74657 7.65507C5.8405 7.57597 5.95008 7.51516 6.06922 7.47649C6.18837 7.43782 6.31445 7.42216 6.44015 7.43052C6.56586 7.43888 6.68835 7.47108 6.80061 7.52502C6.91286 7.57896 7.01245 7.65347 7.09396 7.7439C7.17546 7.83431 7.23732 7.93888 7.27644 8.05145C7.31554 8.16401 7.33126 8.28267 7.32285 8.40077C7.31444 8.51887 7.28204 8.63453 7.22718 8.74116L7.22706 8.74138C6.96642 9.24929 6.88628 9.82693 6.99981 10.3842C7.11332 10.9413 7.41367 11.4451 7.8523 11.8181C8.2908 12.191 8.84319 12.4126 9.42346 12.45C10.0037 12.4875 10.5812 12.3389 11.0665 12.0261C11.5519 11.7132 11.9185 11.2531 12.1075 10.716C12.2966 10.1787 12.2968 9.59573 12.1082 9.05827C11.9196 8.52095 11.5534 8.06057 11.0682 7.74735C10.5832 7.43421 10.0058 7.28514 9.42554 7.32216L9.44146 7.57166L9.42575 7.32215C9.17162 7.33815 8.92263 7.25574 8.73352 7.09531C8.54469 6.93513 8.43135 6.71087 8.41531 6.47278C8.39927 6.23477 8.48151 5.99889 8.64656 5.81714C8.81189 5.63509 9.04707 5.52226 9.30116 5.50626Z" fill="#38B863" stroke="white" stroke-width="0.5"/>
</svg>
