<svg width="24" height="19" viewBox="0 0 24 19" fill="none" xmlns="http://www.w3.org/2000/svg">
<path d="M19.8862 6.147V5.96839L19.7172 5.9105C19.2911 5.76448 18.9047 5.5286 18.5861 5.22063C18.2674 4.91269 18.0246 4.54048 17.8745 4.13147L17.8144 3.96756H17.6398H3.2727C3.04698 3.96756 2.83215 3.88082 2.67505 3.72899C2.51825 3.57744 2.4318 3.37375 2.4318 3.16323C2.4318 2.95271 2.51825 2.74901 2.67505 2.59746C2.83215 2.44563 3.04698 2.35889 3.2727 2.35889H17.6398H17.8146L17.8746 2.19482C18.0441 1.73175 18.3325 1.31676 18.7139 0.989049C19.0953 0.661299 19.5572 0.431665 20.0566 0.322356C20.5561 0.213044 21.0761 0.227801 21.5679 0.365189C22.0598 0.502569 22.5067 0.757885 22.8674 1.1065C23.228 1.45506 23.4907 1.88547 23.6318 2.35718C23.7728 2.82884 23.7879 3.32714 23.6757 3.80586C23.5636 4.28461 23.3276 4.72895 22.9888 5.09715C22.6501 5.4654 22.2196 5.74548 21.7371 5.91044L21.568 5.96826V6.147V17.9239C21.568 18.1345 21.4815 18.3382 21.3247 18.4897C21.1676 18.6415 20.9528 18.7283 20.7271 18.7283H1.0909C0.865181 18.7283 0.650351 18.6415 0.493255 18.4897C0.336449 18.3382 0.25 18.1345 0.25 17.9239V6.32624C0.25 6.18437 0.289258 6.04455 0.364434 5.92121C0.439655 5.79779 0.548359 5.69502 0.680113 5.62444C0.811919 5.55384 0.961494 5.51833 1.11319 5.52218C1.26488 5.52603 1.4122 5.56907 1.53981 5.64615L1.66908 5.43216L1.53982 5.64615L9.67029 10.5572L9.80383 10.6379L9.93497 10.5534L15.8935 6.71351L15.8935 6.71348C16.0795 6.59353 16.3086 6.5493 16.5298 6.59199C16.7508 6.63466 16.9429 6.76 17.0654 6.93742C17.1876 7.1145 17.2313 7.3298 17.1886 7.53649C17.1458 7.74336 17.0193 7.92785 16.8335 8.04762C16.8335 8.04764 16.8335 8.04765 16.8335 8.04766L10.2881 12.265L10.2881 12.265C10.1532 12.352 9.99437 12.3999 9.83074 12.4022C9.6671 12.4046 9.50681 12.3612 9.3692 12.278L9.36918 12.278L2.31106 8.01427L1.9318 7.78516V8.22826V16.8696V17.1196H2.1818H19.6362H19.8862V16.8696V6.147ZM20.7271 4.46756C21.08 4.46756 21.4201 4.33214 21.6722 4.08852C21.9246 3.84462 22.068 3.51196 22.068 3.16323C22.068 2.81449 21.9246 2.48184 21.6722 2.23794C21.4201 1.99431 21.08 1.85889 20.7271 1.85889C20.3741 1.85889 20.034 1.99431 19.782 2.23794C19.5296 2.48184 19.3862 2.81449 19.3862 3.16323C19.3862 3.51196 19.5296 3.84462 19.782 4.08852C20.034 4.33214 20.3741 4.46756 20.7271 4.46756Z" fill="#38B863" stroke="white" stroke-width="0.5"/>
</svg>
