<svg width="24" height="24" viewBox="0 0 24 24" fill="none" xmlns="http://www.w3.org/2000/svg">
<path d="M13.35 9.8L12.95 10.1V9.6V1.2C12.95 0.948045 12.8499 0.706408 12.6717 0.528249C12.4936 0.350089 12.252 0.25 12 0.25C5.51047 0.25 0.25 5.51047 0.25 12C0.25 18.4895 5.51047 23.75 12 23.75C18.4895 23.75 23.75 18.4895 23.75 12L23.75 11.9999C23.7509 9.88152 23.1789 7.80233 22.0946 5.98249C21.0103 4.16265 19.4541 2.6699 17.5907 1.66231L17.5905 1.66221C17.3689 1.54215 17.1087 1.51503 16.8671 1.58684C16.6255 1.65864 16.4223 1.82348 16.3022 2.04509C16.1821 2.2667 16.155 2.52693 16.2268 2.76854C16.2986 3.01014 16.4635 3.21332 16.6851 3.33339C18.751 4.4499 20.3501 6.26777 21.194 8.45924C22.0379 10.6508 22.071 13.0718 21.2874 15.2856C20.5038 17.4994 18.955 19.3604 16.9203 20.5331C14.8855 21.7057 12.4988 22.1127 10.1905 21.6809C7.88208 21.249 5.80397 20.0065 4.33084 18.1776C2.85771 16.3487 2.0865 14.0536 2.15627 11.7062C2.22604 9.35883 3.1322 7.11361 4.71136 5.3754C6.29052 3.6372 8.43875 2.52039 10.7687 2.22637L11.05 2.19087V2.4744V12C11.05 12.1764 11.0991 12.3494 11.1919 12.4994C11.2846 12.6495 11.4173 12.7708 11.5751 12.8497C11.7329 12.9286 11.9096 12.962 12.0853 12.9462C12.261 12.9303 12.4289 12.8659 12.57 12.76L17.37 9.16C17.4698 9.08515 17.5539 8.99137 17.6174 8.88402C17.681 8.77667 17.7228 8.65785 17.7405 8.53435C17.7581 8.41085 17.7512 8.28508 17.7203 8.16423C17.6893 8.04338 17.6349 7.9298 17.56 7.83C17.4851 7.7302 17.3914 7.64611 17.284 7.58255C17.1767 7.51899 17.0579 7.47719 16.9343 7.45955L16.9697 7.21206L16.9343 7.45955C16.8108 7.44191 16.6851 7.44876 16.5642 7.47972C16.4434 7.51068 16.3298 7.56515 16.23 7.64L13.35 9.8ZM24 12C24.0009 9.83654 23.4168 7.7131 22.3094 5.85453C21.202 3.99595 19.6127 2.47143 17.7096 1.4424C17.4297 1.29075 17.101 1.2565 16.7958 1.3472C16.4907 1.43789 16.234 1.64609 16.0824 1.926C15.9307 2.20591 15.8965 2.5346 15.9872 2.83976C16.0779 3.14492 16.2861 3.40155 16.566 3.5532L24 12Z" fill="#38B863" stroke="white" stroke-width="0.5"/>
</svg>
