<svg width="24" height="24" viewBox="0 0 24 24" fill="none" xmlns="http://www.w3.org/2000/svg">
    <path d="M17.1708 14.8626L17.2984 14.8873L21.3851 15.6772L21.5877 15.7164V15.9227V20.5722V20.7974L21.3637 20.8208C17.6894 21.2051 12.6687 19.5736 8.2119 15.2687C3.75682 10.9655 2.06632 6.10817 2.46645 2.54555L2.4914 2.32345H2.71489H7.52959H7.73312L7.77439 2.52276L8.59173 6.46992L8.61965 6.60477L8.5206 6.70044L6.68198 8.47616C6.52253 8.63025 6.41831 8.82767 6.38239 9.04003C6.34648 9.25233 6.38034 9.47045 6.47989 9.66399L6.48044 9.66505C7.27639 11.2308 8.33128 12.661 9.60384 13.8993C9.87015 14.1572 10.1458 14.4059 10.4304 14.6449L10.4304 14.6449C10.6466 14.8265 10.9302 14.9189 11.2189 14.8993C11.3617 14.8897 11.5009 14.853 11.6284 14.7915L11.7369 15.0167L11.6284 14.7915C11.7559 14.7301 11.8691 14.6452 11.9617 14.5422C12.1487 14.3344 12.2412 14.0651 12.2215 13.7936C12.2019 13.5221 12.0713 13.2671 11.8555 13.0857L11.8549 13.0853C10.6666 12.0813 9.65926 10.8927 8.87451 9.56814L8.77379 9.39814L8.91593 9.26088L10.5599 7.67333C10.6851 7.55227 10.7768 7.40393 10.8276 7.24185C10.8784 7.07981 10.887 6.9084 10.8528 6.74256L9.68218 1.08577C9.68217 1.0857 9.68215 1.08563 9.68214 1.08556C9.58196 0.605042 9.14187 0.250001 8.62159 0.250001H1.59489H1.59462C1.34912 0.249739 1.11169 0.329617 0.920722 0.475258C0.729907 0.620783 0.597062 0.823001 0.541634 1.04816L17.1708 14.8626ZM17.1708 14.8626L17.0773 14.9529M17.1708 14.8626L17.0773 14.9529M17.0773 14.9529L15.2386 16.7287L15.2386 16.7287M17.0773 14.9529L15.2386 16.7287M15.2386 16.7287C15.0364 16.9241 14.7604 17.0353 14.471 17.0353C14.1815 17.0353 13.9055 16.9241 13.7034 16.7287C13.5015 16.5336 13.3897 16.2708 13.3897 15.9987C13.3897 15.7266 13.5015 15.4638 13.7033 15.2687C13.7033 15.2687 13.7033 15.2687 13.7034 15.2687L16.046 13.0058L16.0461 13.0057M15.2386 16.7287L16.0461 13.0057M16.0461 13.0057C16.1715 12.8845 16.3267 12.7944 16.4981 12.7442C16.6697 12.6941 16.8515 12.6856 17.0274 12.7197L17.0275 12.7197M16.0461 13.0057L17.0275 12.7197M17.0275 12.7197L22.8822 13.8511L22.8824 13.8512M17.0275 12.7197L22.8824 13.8512M22.8824 13.8512C23.1297 13.8988 23.3506 14.0276 23.5082 14.2135C23.6657 14.3993 23.7506 14.6307 23.7503 14.8682V14.8685M22.8824 13.8512L23.7503 14.8685M23.7503 14.8685V21.6559C23.7504 21.8868 23.6699 22.112 23.5203 22.295C23.3705 22.4783 23.16 22.6088 22.9216 22.6636C18.5068 23.6789 12.1431 22.0094 6.67796 16.7287L6.67792 16.7287M23.7503 14.8685L6.67792 16.7287M6.67792 16.7287C1.21102 11.4488 -0.506138 5.30486 0.541632 1.04816L6.67792 16.7287Z" fill="#38B863" stroke="white" stroke-width="0.5"/>
</svg>
