<svg width="44" height="44" viewBox="0 0 44 44" fill="none" xmlns="http://www.w3.org/2000/svg">
<path d="M22 19.172L26.586 14.586C26.9632 14.2217 27.4684 14.0201 27.9928 14.0247C28.5172 14.0292 29.0188 14.2395 29.3896 14.6104C29.7605 14.9812 29.9708 15.4828 29.9753 16.0072C29.9799 16.5316 29.7783 17.0368 29.414 17.414L17.414 29.414C17.2295 29.605 17.0088 29.7574 16.7648 29.8622C16.5208 29.967 16.2584 30.0222 15.9928 30.0245C15.7272 30.0268 15.4639 29.9762 15.2181 29.8756C14.9723 29.7751 14.749 29.6266 14.5612 29.4388C14.3734 29.251 14.2249 29.0277 14.1244 28.7819C14.0238 28.5361 13.9732 28.2728 13.9755 28.0072C13.9778 27.7416 14.033 27.4792 14.1378 27.2352C14.2426 26.9912 14.395 26.7705 14.586 26.586L19.172 22L14.586 17.414C14.2217 17.0368 14.0201 16.5316 14.0247 16.0072C14.0292 15.4828 14.2395 14.9812 14.6104 14.6104C14.9812 14.2395 15.4828 14.0292 16.0072 14.0247C16.5316 14.0201 17.0368 14.2217 17.414 14.586L22 19.172ZM22 6C21.4696 6 20.9609 5.78929 20.5858 5.41421C20.2107 5.03914 20 4.53043 20 4C20 3.46957 20.2107 2.96086 20.5858 2.58579C20.9609 2.21071 21.4696 2 22 2C33.046 2 42 10.954 42 22C42 33.046 33.046 42 22 42C10.954 42 2 33.046 2 22C1.99872 18.3875 2.97618 14.8422 4.82851 11.7408C6.68084 8.63937 9.33883 6.09774 12.52 4.386C12.9868 4.13404 13.5345 4.07784 14.0428 4.22974C14.551 4.38165 14.978 4.72922 15.23 5.196C15.482 5.66278 15.5382 6.21053 15.3863 6.71876C15.2344 7.22698 14.8868 7.65404 14.42 7.906C10.9824 9.75323 8.33845 12.7931 6.98566 16.4536C5.63288 20.1141 5.66455 24.1428 7.07471 27.7816C8.48487 31.4204 11.1763 34.4184 14.6425 36.2113C18.1087 38.0043 22.1107 38.4686 25.8953 37.517C29.68 36.5653 32.9864 34.2633 35.1923 31.0441C37.3982 27.8248 38.3514 23.9104 37.8728 20.0374C37.3941 16.1644 35.5164 12.5999 32.5931 10.0146C29.6698 7.42932 25.9025 6.00156 22 6ZM23.336 26.164C22.9717 25.7868 22.7701 25.2816 22.7747 24.7572C22.7792 24.2328 22.9895 23.7312 23.3604 23.3604C23.7312 22.9895 24.2328 22.7792 24.7572 22.7747C25.2816 22.7701 25.7868 22.9717 26.164 23.336L29.414 26.586C29.7783 26.9632 29.9799 27.4684 29.9753 27.9928C29.9708 28.5172 29.7605 29.0188 29.3896 29.3896C29.0188 29.7605 28.5172 29.9708 27.9928 29.9753C27.4684 29.9799 26.9632 29.7783 26.586 29.414L23.336 26.164Z" fill="#38B863" stroke="white" stroke-width="2.6"/>
</svg>
