<svg width="70" height="70" viewBox="0 0 70 70" fill="none" xmlns="http://www.w3.org/2000/svg">
<path d="M13.3133 22.5508C13.7242 21.6291 14.1378 20.8358 14.5293 20.1782L29.5823 35.4083L14.5091 49.8116C13.9926 48.7797 13.4715 47.6452 12.9825 46.4398C11.5354 42.8722 10.5 38.9987 10.5 35.5C10.5 30.846 11.7342 26.0935 13.3133 22.5508Z" fill="url(#paint0_linear)" stroke="white" stroke-width="9"/>
<path d="M35 30.4752L42.3376 23.1376C42.9411 22.5547 43.7495 22.2322 44.5885 22.2394C45.4275 22.2467 46.2301 22.5833 46.8234 23.1766C47.4167 23.7699 47.7533 24.5725 47.7606 25.4115C47.7678 26.2505 47.4453 27.0589 46.8624 27.6624L27.6624 46.8624C27.3672 47.168 27.0141 47.4118 26.6237 47.5795C26.2333 47.7472 25.8134 47.8355 25.3885 47.8392C24.9636 47.8429 24.5422 47.7619 24.1489 47.601C23.7557 47.4401 23.3984 47.2025 23.0979 46.9021C22.7975 46.6016 22.5599 46.2443 22.399 45.8511C22.2381 45.4578 22.1571 45.0364 22.1608 44.6115C22.1645 44.1866 22.2528 43.7667 22.4205 43.3763C22.5882 42.9859 22.832 42.6328 23.1376 42.3376L30.4752 35L23.1376 27.6624C22.5547 27.0589 22.2322 26.2505 22.2394 25.4115C22.2467 24.5725 22.5833 23.7699 23.1766 23.1766C23.7699 22.5833 24.5725 22.2467 25.4115 22.2394C26.2505 22.2322 27.0589 22.5547 27.6624 23.1376L35 30.4752ZM35 9.4C34.1513 9.4 33.3374 9.06286 32.7373 8.46274C32.1371 7.86263 31.8 7.04869 31.8 6.2C31.8 5.35131 32.1371 4.53737 32.7373 3.93726C33.3374 3.33714 34.1513 3 35 3C52.6736 3 67 17.3264 67 35C67 52.6736 52.6736 67 35 67C17.3264 67 3 52.6736 3 35C2.99795 29.2201 4.56189 23.5475 7.52562 18.5853C10.4893 13.623 14.7421 9.55638 19.832 6.8176C20.5789 6.41447 21.4553 6.32454 22.2684 6.56758C23.0816 6.81063 23.7649 7.36675 24.168 8.1136C24.5711 8.86045 24.6611 9.73685 24.418 10.55C24.175 11.3632 23.6189 12.0465 22.872 12.4496C17.3719 15.4052 13.1415 20.269 10.9771 26.1258C8.81261 31.9826 8.86328 38.4285 11.1195 44.2506C13.3758 50.0726 17.6821 54.8694 23.228 57.7381C28.7739 60.6068 35.1771 61.3498 41.2326 59.8271C47.288 58.3045 52.5782 54.6212 56.1076 49.4705C59.637 44.3197 61.1623 38.0567 60.3964 31.8599C59.6305 25.663 56.6263 19.9598 51.949 15.8234C47.2717 11.6869 41.244 9.4025 35 9.4ZM37.1376 41.6624C36.5547 41.0589 36.2322 40.2505 36.2394 39.4115C36.2467 38.5725 36.5833 37.7699 37.1766 37.1766C37.7699 36.5833 38.5725 36.2467 39.4115 36.2394C40.2506 36.2322 41.0589 36.5547 41.6624 37.1376L46.8624 42.3376C47.4453 42.9411 47.7678 43.7495 47.7606 44.5885C47.7533 45.4275 47.4167 46.2301 46.8234 46.8234C46.2301 47.4167 45.4275 47.7533 44.5885 47.7606C43.7495 47.7678 42.9411 47.4453 42.3376 46.8624L37.1376 41.6624Z" fill="#38B863" stroke="white" stroke-width="4.5"/>
<defs>
<linearGradient id="paint0_linear" x1="21" y1="14" x2="21" y2="57" gradientUnits="userSpaceOnUse">
<stop offset="0.265625" stop-color="#A2FFC7"/>
<stop offset="0.645833" stop-color="#E1FDEE"/>
</linearGradient>
</defs>
</svg>
