<svg width="44" height="44" viewBox="0 0 44 44" fill="none" xmlns="http://www.w3.org/2000/svg">
<path d="M24.2222 30.8889H17.5556C17.1166 30.889 16.6874 30.7591 16.3222 30.5156L9.65556 26.0711C9.3513 25.8681 9.10185 25.5932 8.92935 25.2706C8.75684 24.9481 8.66661 24.588 8.66667 24.2222V20.9667L2.98889 17.1822C2.68463 16.9792 2.43518 16.7043 2.26268 16.3817C2.09017 16.0592 1.99995 15.6991 2 15.3333V6.44444C2 5.85507 2.23413 5.28984 2.65087 4.8731C3.06762 4.45635 3.63285 4.22222 4.22222 4.22222H8.66667C8.66667 3.63285 8.90079 3.06762 9.31754 2.65087C9.73429 2.23413 10.2995 2 10.8889 2H33.1111C33.7005 2 34.2657 2.23413 34.6825 2.65087C35.0992 3.06762 35.3333 3.63285 35.3333 4.22222H39.7778C40.3671 4.22222 40.9324 4.45635 41.3491 4.8731C41.7659 5.28984 42 5.85507 42 6.44444V15.3333C42.0001 15.6991 41.9098 16.0592 41.7373 16.3817C41.5648 16.7043 41.3154 16.9792 41.0111 17.1822L35.3333 20.9667V24.2222C35.3334 24.588 35.2432 24.9481 35.0707 25.2706C34.8982 25.5932 34.6487 25.8681 34.3444 26.0711L28.6667 29.8556V31.7378L31.8822 33.3467C32.2513 33.5311 32.5617 33.8146 32.7788 34.1655C32.9958 34.5164 33.1109 34.9208 33.1111 35.3333V39.7778C33.1111 40.3671 32.877 40.9324 32.4602 41.3491C32.0435 41.7659 31.4783 42 30.8889 42H13.1111C12.5217 42 11.9565 41.7659 11.5398 41.3491C11.123 40.9324 10.8889 40.3671 10.8889 39.7778V35.3333C10.8889 34.744 11.123 34.1787 11.5398 33.762C11.9565 33.3452 12.5217 33.1111 13.1111 33.1111C13.7005 33.1111 14.2657 33.3452 14.6825 33.762C15.0992 34.1787 15.3333 34.744 15.3333 35.3333V37.5556H28.6667V36.7067L25.4511 35.0978C25.082 34.9134 24.7716 34.6298 24.5546 34.2789C24.3375 33.9281 24.2224 33.5237 24.2222 33.1111V30.8889ZM30.8889 6.44444H13.1111V10.8889C13.1111 11.4783 12.877 12.0435 12.4602 12.4602C12.0435 12.877 11.4783 13.1111 10.8889 13.1111C10.2995 13.1111 9.73429 12.877 9.31754 12.4602C8.90079 12.0435 8.66667 11.4783 8.66667 10.8889V8.66667H6.44444V14.1444L12.0933 17.9089C12.4058 18.1104 12.6627 18.3871 12.8405 18.7136C13.0183 19.0401 13.1113 19.406 13.1111 19.7778V23.0333L18.2289 26.4444H25.7711L30.8889 23.0333V6.44444ZM37.5556 8.66667H35.3333V15.6244L37.5556 14.1444V8.66667Z" fill="#38B863" stroke="white" stroke-width="3.2"/>
</svg>
