<svg width="70" height="70" viewBox="0 0 70 70" fill="none" xmlns="http://www.w3.org/2000/svg">
<path d="M41.2955 38.2933L30.1367 13H47V34.3902L41.2955 38.2933Z" fill="url(#paint0_linear)" stroke="white" stroke-width="8"/>
<path d="M38.5556 49.2222H27.8889C27.1866 49.2224 26.4999 49.0145 25.9156 48.6249L15.2489 41.5138C14.7621 41.189 14.363 40.749 14.087 40.233C13.8109 39.717 13.6666 39.1408 13.6667 38.5556V33.3467L4.58222 27.2916C4.09541 26.9668 3.69629 26.5268 3.42028 26.0108C3.14428 25.4947 2.99991 24.9186 3 24.3333V10.1111C3 9.16812 3.3746 8.26375 4.0414 7.59695C4.70819 6.93016 5.61256 6.55556 6.55556 6.55556H13.6667C13.6667 5.61256 14.0413 4.70819 14.7081 4.0414C15.3749 3.3746 16.2792 3 17.2222 3H52.7778C53.7208 3 54.6251 3.3746 55.2919 4.0414C55.9587 4.70819 56.3333 5.61256 56.3333 6.55556H63.4444C64.3874 6.55556 65.2918 6.93016 65.9586 7.59695C66.6254 8.26375 67 9.16812 67 10.1111V24.3333C67.0001 24.9186 66.8557 25.4947 66.5797 26.0108C66.3037 26.5268 65.9046 26.9668 65.4178 27.2916L56.3333 33.3467V38.5556C56.3334 39.1408 56.1891 39.717 55.913 40.233C55.637 40.749 55.2379 41.189 54.7511 41.5138L45.6667 47.5689V50.5804L50.8116 53.1547C51.4021 53.4497 51.8988 53.9034 52.246 54.4648C52.5933 55.0262 52.7774 55.6732 52.7778 56.3333V63.4444C52.7778 64.3874 52.4032 65.2918 51.7364 65.9586C51.0696 66.6254 50.1652 67 49.2222 67H20.7778C19.8348 67 18.9304 66.6254 18.2636 65.9586C17.5968 65.2918 17.2222 64.3874 17.2222 63.4444V56.3333C17.2222 55.3903 17.5968 54.486 18.2636 53.8192C18.9304 53.1524 19.8348 52.7778 20.7778 52.7778C21.7208 52.7778 22.6251 53.1524 23.2919 53.8192C23.9587 54.486 24.3333 55.3903 24.3333 56.3333V59.8889H45.6667V58.5307L40.5218 55.9564C39.9313 55.6614 39.4346 55.2077 39.0873 54.6463C38.74 54.0849 38.5559 53.4379 38.5556 52.7778V49.2222ZM49.2222 10.1111H20.7778V17.2222C20.7778 18.1652 20.4032 19.0696 19.7364 19.7364C19.0696 20.4032 18.1652 20.7778 17.2222 20.7778C16.2792 20.7778 15.3749 20.4032 14.7081 19.7364C14.0413 19.0696 13.6667 18.1652 13.6667 17.2222V13.6667H10.1111V22.4311L19.1493 28.4542C19.6492 28.7766 20.0603 29.2193 20.3448 29.7417C20.6293 30.2641 20.7781 30.8496 20.7778 31.4444V36.6533L28.9662 42.1111H41.0338L49.2222 36.6533V10.1111ZM59.8889 13.6667H56.3333V24.7991L59.8889 22.4311V13.6667Z" fill="#38B863" stroke="white" stroke-width="5.2"/>
<defs>
<linearGradient id="paint0_linear" x1="37.5" y1="9" x2="37.5" y2="43" gradientUnits="userSpaceOnUse">
<stop offset="0.265625" stop-color="#A2FFC7"/>
<stop offset="0.645833" stop-color="#E1FDEE"/>
</linearGradient>
</defs>
</svg>
