<svg width="22" height="18" viewBox="0 0 22 18" fill="none" xmlns="http://www.w3.org/2000/svg">
<path d="M18.25 5.83021V5.65359L18.0835 5.59458C17.6966 5.4574 17.3452 5.23558 17.0549 4.9453C16.7646 4.65502 16.5428 4.3036 16.4056 3.91667L16.3466 3.75021H16.17H3C2.80109 3.75021 2.61032 3.67119 2.46967 3.53054C2.32902 3.38988 2.25 3.19912 2.25 3.00021C2.25 2.8013 2.32902 2.61053 2.46967 2.46988C2.61032 2.32923 2.80109 2.25021 3 2.25021H16.17H16.3467L16.4057 2.08358C16.5607 1.6455 16.8241 1.25382 17.1713 0.945071C17.5186 0.636321 17.9384 0.420566 18.3916 0.317937C18.8448 0.215307 19.3166 0.229147 19.763 0.358165C20.2094 0.487183 20.6159 0.727174 20.9445 1.05575C21.273 1.38432 21.513 1.79077 21.642 2.23718C21.7711 2.68358 21.7849 3.15539 21.6823 3.60859C21.5796 4.06179 21.3639 4.48161 21.0551 4.82888C20.7464 5.17615 20.3547 5.43956 19.9166 5.59452L19.75 5.65346V5.83021V17.0002C19.75 17.1991 19.671 17.3899 19.5303 17.5305C19.3897 17.6712 19.1989 17.7502 19 17.7502H1C0.801087 17.7502 0.610322 17.6712 0.46967 17.5305C0.329018 17.3899 0.25 17.1991 0.25 17.0002V6.00021C0.25 5.86633 0.285835 5.73489 0.353786 5.61954C0.421738 5.50418 0.519327 5.40912 0.636423 5.34422C0.753519 5.27932 0.885853 5.24695 1.01969 5.25046C1.15352 5.25398 1.28397 5.29325 1.3975 5.36421L1.53 5.15221L1.3975 5.36421L8.8505 10.0222L8.98739 10.1078L9.12169 10.0182L14.5837 6.37621L14.5837 6.37618C14.7492 6.26578 14.9518 6.22565 15.1469 6.26461C15.342 6.30357 15.5136 6.41844 15.624 6.58394C15.7344 6.74944 15.7746 6.95202 15.7356 7.14712C15.6966 7.34221 15.5818 7.51383 15.4163 7.62423L9.41633 11.6242L9.41628 11.6242C9.29618 11.7043 9.15552 11.7481 9.01117 11.7502C8.86683 11.7523 8.72494 11.7128 8.60253 11.6362L8.60251 11.6362L2.13251 7.59221L1.75 7.35313V7.80421V16.0002V16.2502H2H18H18.25V16.0002V5.83021ZM19 4.25021C19.3315 4.25021 19.6495 4.11851 19.8839 3.88409C20.1183 3.64967 20.25 3.33173 20.25 3.00021C20.25 2.66869 20.1183 2.35075 19.8839 2.11632C19.6495 1.8819 19.3315 1.75021 19 1.75021C18.6685 1.75021 18.3505 1.8819 18.1161 2.11632C17.8817 2.35075 17.75 2.66869 17.75 3.00021C17.75 3.33173 17.8817 3.64967 18.1161 3.88409C18.3505 4.11851 18.6685 4.25021 19 4.25021Z" fill="#38B863" stroke="#E1FDF4" stroke-width="0.5"/>
</svg>
