<svg width="59" height="50" viewBox="0 0 59 50" fill="none" xmlns="http://www.w3.org/2000/svg">
<path d="M40.7495 22.9559V22.426L40.2501 22.249C39.4176 21.9538 38.6614 21.4765 38.0368 20.8519C37.4123 20.2273 36.935 19.4712 36.6398 18.6386L36.4628 18.1392H35.9329H6.66659C6.27614 18.1392 5.90168 17.9841 5.62559 17.7081C5.3495 17.432 5.19439 17.0575 5.19439 16.6671C5.19439 16.2766 5.3495 15.9021 5.62559 15.6261C5.90168 15.35 6.27614 15.1949 6.66659 15.1949H35.9329H36.4632L36.64 14.695C36.9734 13.7524 37.5401 12.9097 38.2873 12.2455C39.0344 11.5812 39.9377 11.117 40.9127 10.8962C41.8878 10.6754 42.9029 10.7051 43.8633 10.9827C44.8238 11.2603 45.6983 11.7766 46.4052 12.4836C47.1121 13.1905 47.6285 14.065 47.9061 15.0254C48.1837 15.9859 48.2134 17.001 47.9926 17.9761C47.7718 18.9511 47.3076 19.8544 46.6433 20.6015C45.9791 21.3487 45.1363 21.9154 44.1938 22.2488L43.6939 22.4256V22.9559V47.7778C43.6939 48.1683 43.5388 48.5427 43.2627 48.8188C42.9866 49.0949 42.6122 49.25 42.2217 49.25H2.2222C1.83175 49.25 1.45729 49.0949 1.18119 48.8188C0.905106 48.5427 0.75 48.1683 0.75 47.7778V23.3336C0.749999 23.0708 0.820342 22.8128 0.953725 22.5864C1.08711 22.36 1.27867 22.1734 1.50852 22.046C1.73837 21.9186 1.99813 21.855 2.26084 21.8619C2.52354 21.8688 2.77961 21.9459 3.00246 22.0852L3.00247 22.0852L19.5645 32.4362L19.9752 32.6929L20.3781 32.4242L32.5157 24.331L32.5158 24.3309C32.8407 24.1142 33.2384 24.0354 33.6213 24.1119C34.0043 24.1884 34.3412 24.4138 34.5579 24.7387L35.1818 24.3225L34.5579 24.7387C34.7746 25.0636 34.8534 25.4612 34.7769 25.8442C34.7004 26.2271 34.475 26.5639 34.1502 26.7807C34.1502 26.7807 34.1501 26.7807 34.1501 26.7808L20.8171 35.6695L20.8169 35.6695C20.5812 35.8268 20.3051 35.9126 20.0217 35.9168C19.7384 35.921 19.4599 35.8433 19.2196 35.6931L19.2195 35.6931L4.84191 26.7065L3.69439 25.9893V27.3425V45.5556V46.3056H4.44439H39.9995H40.7495V45.5556V22.9559ZM42.2217 19.6392C43.01 19.6392 43.766 19.3261 44.3234 18.7687C44.8808 18.2113 45.1939 17.4553 45.1939 16.6671C45.1939 15.8788 44.8808 15.1228 44.3234 14.5654C43.766 14.008 43.01 13.6949 42.2217 13.6949C41.4335 13.6949 40.6775 14.008 40.1201 14.5654C39.5627 15.1228 39.2495 15.8788 39.2495 16.6671C39.2495 17.4553 39.5627 18.2113 40.1201 18.7687C40.6775 19.3261 41.4335 19.6392 42.2217 19.6392Z" fill="#38B863" stroke="white" stroke-width="1.5"/>
<circle cx="44" cy="15" r="15" fill="#38B863"/>
<path d="M44.4059 9.48L39.6459 15.36V17.46H44.4759V19H46.9259V17.46H48.1859V15.36H46.9259V9.48H44.4059ZM44.4759 15.36H42.2219L44.4759 12.574V15.36Z" fill="white"/>
</svg>
