<svg width="84" height="67" viewBox="0 0 84 67" fill="none" xmlns="http://www.w3.org/2000/svg">
<path d="M7 20.8071V19H58.3042L58.5078 19.3199L31.9692 36.7358L7 20.8071Z" fill="url(#paint0_linear)" stroke="white" stroke-width="8"/>
<path d="M65.2493 23.7294V22.8463L64.4169 22.5512C63.0919 22.0815 61.8884 21.3218 60.8943 20.3277C59.9002 19.3336 59.1406 18.1302 58.6708 16.8051L58.3757 15.9728H57.4927H10.6665C10.0551 15.9728 9.46867 15.7299 9.0363 15.2975C8.60393 14.8652 8.36103 14.2787 8.36103 13.6673C8.36103 13.0558 8.60393 12.4694 9.0363 12.037C9.46867 11.6047 10.0551 11.3618 10.6665 11.3618H57.4927H58.3764L58.6711 10.5286C59.2017 9.02855 60.1037 7.68733 61.2928 6.63009C62.482 5.57286 63.9195 4.83406 65.4714 4.48263C67.0233 4.1312 68.6389 4.17859 70.1675 4.62038C71.6961 5.06217 73.0878 5.88396 74.213 7.00908C75.3381 8.1342 76.1599 9.52599 76.6017 11.0546C77.0435 12.5832 77.0909 14.1988 76.7394 15.7507C76.388 17.3025 75.6492 18.7401 74.592 19.9292C73.5347 21.1184 72.1935 22.0203 70.6934 22.5509L69.8603 22.8457V23.7294V63.4445C69.8603 64.0559 69.6174 64.6424 69.185 65.0747C68.7527 65.5071 68.1662 65.75 67.5548 65.75H3.55551C2.94405 65.75 2.35763 65.5071 1.92527 65.0747C1.4929 64.6424 1.25 64.0559 1.25 63.4445V24.3338C1.25 23.9223 1.36016 23.5182 1.56904 23.1636C1.77792 22.809 2.07792 22.5168 2.43787 22.3173C2.79783 22.1178 3.20462 22.0183 3.61603 22.0291C4.02744 22.0399 4.42845 22.1606 4.77743 22.3787L4.77745 22.3788L31.2767 38.9403L31.9611 39.3681L32.6326 38.9203L52.0529 25.9712L52.0531 25.971C52.5618 25.6316 53.1846 25.5083 53.7843 25.628C54.3841 25.7478 54.9117 26.1009 55.251 26.6097C55.5904 27.1185 55.7138 27.7412 55.594 28.3409C55.4743 28.9406 55.1213 29.4681 54.6127 29.8075C54.6126 29.8075 54.6125 29.8076 54.6124 29.8077L33.2796 44.0295L33.2793 44.0297C32.9102 44.2759 32.4777 44.4104 32.034 44.4169C31.5903 44.4235 31.1541 44.3018 30.7779 44.0666L30.7777 44.0665L7.77356 29.688L5.86103 28.4926V30.748V59.889V61.139H7.11103H63.9993H65.2493V59.889V23.7294ZM67.5548 18.4728C68.8293 18.4728 70.0516 17.9665 70.9528 17.0653C71.854 16.1641 72.3603 14.9418 72.3603 13.6673C72.3603 12.3928 71.854 11.1705 70.9528 10.2693C70.0516 9.36806 68.8293 8.86177 67.5548 8.86177C66.2803 8.86177 65.058 9.36806 64.1568 10.2693C63.2556 11.1705 62.7493 12.3928 62.7493 13.6673C62.7493 14.9418 63.2556 16.1641 64.1568 17.0653C65.058 17.9665 66.2803 18.4728 67.5548 18.4728Z" fill="#38B863" stroke="white" stroke-width="2.5"/>
<circle cx="69" cy="15" r="15" fill="#38B863"/>
<path d="M69.4059 9.48L64.6459 15.36V17.46H69.4759V19H71.9259V17.46H73.1859V15.36H71.9259V9.48H69.4059ZM69.4759 15.36H67.2219L69.4759 12.574V15.36Z" fill="white"/>
<defs>
<linearGradient id="paint0_linear" x1="33.5" y1="15" x2="33.5" y2="41.5" gradientUnits="userSpaceOnUse">
<stop offset="0.265625" stop-color="#A2FFC7"/>
<stop offset="0.645833" stop-color="#E1FDEE"/>
</linearGradient>
</defs>
</svg>
