<svg width="77" height="75" viewBox="0 0 77 75" fill="none" xmlns="http://www.w3.org/2000/svg">
<path d="M34.5 65.7574V46H54.2574L34.5 65.7574Z" fill="url(#paint0_linear)" stroke="white" stroke-width="6"/>
<path d="M30.624 69.1389H31.1073L31.4648 68.8138L50.0035 51.9605L50.0037 51.9603C50.4562 51.5487 51.0538 51.3338 51.6648 51.3628C52.2758 51.3917 52.8503 51.6623 53.2619 52.1148C53.6735 52.5674 53.8884 53.1649 53.8595 53.7759C53.8305 54.3869 53.56 54.9614 53.1074 55.373L33.5521 73.1506C33.5521 73.1506 33.5521 73.1506 33.5521 73.1506C33.1275 73.5365 32.5742 73.7502 32.0005 73.75H32H3.55556C2.94408 73.75 2.35765 73.5071 1.92528 73.0747C1.49291 72.6423 1.25 72.0559 1.25 71.4444V14.5556C1.25 13.9441 1.49291 13.3577 1.92528 12.9253C2.35766 12.4929 2.94408 12.25 3.55556 12.25H60.4444C61.0559 12.25 61.6423 12.4929 62.0747 12.9253C62.5071 13.3577 62.75 13.9441 62.75 14.5556V43C62.75 43.6115 62.5071 44.1979 62.0747 44.6303C61.6423 45.0626 61.0559 45.3056 60.4444 45.3056H35.5556H34.3056V46.5556V55.4444C34.3056 56.0559 34.0626 56.6423 33.6303 57.0747C33.1979 57.5071 32.6115 57.75 32 57.75C31.3885 57.75 30.8021 57.5071 30.3697 57.0747C29.9374 56.6423 29.6944 56.0559 29.6944 55.4444V43C29.6944 42.3885 29.9374 41.8021 30.3697 41.3697C30.8021 40.9374 31.3885 40.6944 32 40.6944H56.8889H58.1389V39.4444V18.1111V16.8611H56.8889H7.11111H5.86111V18.1111V67.8889V69.1389H7.11111H30.624Z" fill="#38B863" stroke="white" stroke-width="2.5"/>
<circle cx="62" cy="15" r="15" fill="#38B863"/>
<path d="M61.01 9.48L58.7 10.362V12.672L60.38 12.042V16.83H58.7V19H64.384V16.83H62.9V9.48H61.01Z" fill="white"/>
<defs>
<linearGradient id="paint0_linear" x1="46.5" y1="43" x2="46.5" y2="73" gradientUnits="userSpaceOnUse">
<stop offset="0.265625" stop-color="#A2FFC7"/>
<stop offset="0.645833" stop-color="#E1FDEE"/>
</linearGradient>
</defs>
</svg>
