<svg width="59" height="51" viewBox="0 0 59 51" fill="none" xmlns="http://www.w3.org/2000/svg">
<path d="M19.14 47.3056H19.43L19.6445 47.1105L31.2312 36.5772L31.2313 36.5771C31.5203 36.3143 31.9018 36.177 32.292 36.1955C32.6822 36.214 33.049 36.3867 33.3118 36.6757C33.5746 36.9647 33.7119 37.3462 33.6934 37.7364C33.6749 38.1266 33.5021 38.4934 33.2132 38.7563L20.9911 49.8672C20.72 50.1137 20.3667 50.2501 20.0003 50.25H20H2.22222C1.83176 50.25 1.4573 50.0949 1.1812 49.8188C0.905109 49.5427 0.75 49.1682 0.75 48.7778V13.2222C0.75 12.8318 0.905109 12.4573 1.1812 12.1812C1.4573 11.9051 1.83176 11.75 2.22222 11.75H37.7778C38.1682 11.75 38.5427 11.9051 38.8188 12.1812C39.0949 12.4573 39.25 12.8318 39.25 13.2222V31C39.25 31.3905 39.0949 31.7649 38.8188 32.041C38.5427 32.3171 38.1682 32.4722 37.7778 32.4722H22.2222H21.4722V33.2222V38.7778C21.4722 39.1682 21.3171 39.5427 21.041 39.8188C20.7649 40.0949 20.3905 40.25 20 40.25C19.6095 40.25 19.2351 40.0949 18.959 39.8188C18.6829 39.5427 18.5278 39.1682 18.5278 38.7778V31C18.5278 30.6095 18.6829 30.2351 18.959 29.959C19.2351 29.6829 19.6095 29.5278 20 29.5278H35.5556H36.3056V28.7778V15.4444V14.6944H35.5556H4.44444H3.69444V15.4444V46.5556V47.3056H4.44444H19.14Z" fill="#38B863" stroke="white" stroke-width="1.5"/>
<circle cx="44" cy="15" r="15" fill="#38B863"/>
<path d="M43.6672 9.48L41.3572 10.362V12.672L43.0372 12.042V16.83H41.3572V19H47.0412V16.83H45.5572V9.48H43.6672Z" fill="white"/>
</svg>
