<svg width="52" height="64" viewBox="0 0 52 64" fill="none" xmlns="http://www.w3.org/2000/svg">
<path d="M45.9485 23.724V20.9476L43.9853 22.9108L27.0484 39.8477C26.664 40.232 26.1427 40.4479 25.5991 40.4479C25.0556 40.4479 24.5343 40.232 24.1499 39.8477L14.5581 30.256C14.1886 29.8701 13.9843 29.355 13.989 28.8205C13.9936 28.2831 14.2092 27.7689 14.5893 27.3889C14.9694 27.0088 15.4835 26.7932 16.021 26.7885C16.5555 26.7839 17.0705 26.9882 17.4564 27.3577L24.786 34.6872L25.5991 35.5004L26.4123 34.6872L46.5492 14.5503C47.8408 13.2587 50.0483 14.1731 50.0483 15.9995V40.5711C50.0483 40.5712 50.0483 40.5713 50.0483 40.5714C50.0474 43.1887 49.3547 45.7593 48.0405 48.0227C46.7261 50.2862 44.8369 52.1621 42.5641 53.4604L42.5637 53.4606L26.6159 62.5801C26.6157 62.5802 26.6156 62.5802 26.6154 62.5803C26.3059 62.757 25.9556 62.85 25.5991 62.85C25.2427 62.85 24.8923 62.757 24.5828 62.5803C24.5826 62.5802 24.5825 62.5801 24.5824 62.5801L8.6313 53.4606L8.63116 53.4605C6.35938 52.1621 4.47101 50.2865 3.15727 48.0236C1.84361 45.7608 1.15115 43.1911 1.15 40.5746C1.15 40.5745 1.15 40.5743 1.15 40.5742L1.15 6.39978L1.15 6.39914C1.14975 5.95359 1.29468 5.52008 1.56284 5.16426C1.831 4.80844 2.20779 4.54968 2.63617 4.42715L2.63617 4.42715L2.63938 4.42623C10.1026 2.26805 17.8313 1.16527 25.6003 1.15C33.2548 1.15011 40.911 2.24434 48.5623 4.4272C49.0854 4.57675 49.5278 4.928 49.7919 5.40368C50.0561 5.87936 50.1205 6.44051 49.971 6.96367C49.8214 7.48684 49.4702 7.92916 48.9945 8.19334C48.5193 8.45725 47.9588 8.52179 47.4361 8.37284C40.3394 6.31787 32.99 5.26665 25.6018 5.24978H25.5991C19.1068 5.24978 12.6117 6.07852 6.11589 7.73329L5.24978 7.95393V8.8477V40.5714V40.5718C5.25039 42.4666 5.75182 44.3275 6.70326 45.9661C7.65465 47.6046 9.02221 48.9626 10.6674 49.9024C10.6675 49.9024 10.6675 49.9025 10.6676 49.9025L25.0285 58.1101L25.5991 58.4362L26.1698 58.1101L40.5306 49.9025C40.5307 49.9025 40.5308 49.9024 40.5309 49.9024C42.1755 48.9629 43.5428 47.6055 44.4941 45.9677C45.4455 44.3298 45.9472 42.4696 45.9485 40.5754V40.5746V23.724Z" fill="#38B863" stroke="white" stroke-width="2.3"/>
</svg>
