<svg width="36" height="44" viewBox="0 0 36 44" fill="none" xmlns="http://www.w3.org/2000/svg">
<path d="M10 16V10C10 7.87827 10.8429 5.84344 12.3431 4.34315C13.8434 2.84285 15.8783 2 18 2C20.1217 2 22.1566 2.84285 23.6569 4.34315C25.1571 5.84344 26 7.87827 26 10C26 10.5304 25.7893 11.0391 25.4142 11.4142C25.0391 11.7893 24.5304 12 24 12C23.4696 12 22.9609 11.7893 22.5858 11.4142C22.2107 11.0391 22 10.5304 22 10C22 8.93913 21.5786 7.92172 20.8284 7.17157C20.0783 6.42143 19.0609 6 18 6C16.9391 6 15.9217 6.42143 15.1716 7.17157C14.4214 7.92172 14 8.93913 14 10V14H32C32.5304 14 33.0391 14.2107 33.4142 14.5858C33.7893 14.9609 34 15.4696 34 16V40C34 40.5304 33.7893 41.0391 33.4142 41.4142C33.0391 41.7893 32.5304 42 32 42H4C3.46957 42 2.96086 41.7893 2.58579 41.4142C2.21071 41.0391 2 40.5304 2 40V16C2 15.4696 2.21071 14.9609 2.58579 14.5858C2.96086 14.2107 3.46957 14 4 14C4.53043 14 5.03914 14.2107 5.41421 14.5858C5.78929 14.9609 6 15.4696 6 16V38H30V18H12C11.4696 18 10.9609 17.7893 10.5858 17.4142C10.2107 17.0391 10 16.5304 10 16Z" fill="#38B863" stroke="white" stroke-width="2.5"/>
</svg>
