<svg width="57" height="70" viewBox="0 0 57 70" fill="none" xmlns="http://www.w3.org/2000/svg">
<rect x="12" y="41" width="33" height="16" fill="url(#paint0_linear)" stroke="white" stroke-width="10"/>
<path d="M15.8 25.4V15.8C15.8 12.4052 17.1486 9.1495 19.549 6.74903C21.9495 4.34857 25.2052 3 28.6 3C31.9948 3 35.2505 4.34857 37.651 6.74903C40.0514 9.1495 41.4 12.4052 41.4 15.8C41.4 16.6487 41.0629 17.4626 40.4627 18.0627C39.8626 18.6629 39.0487 19 38.2 19C37.3513 19 36.5374 18.6629 35.9373 18.0627C35.3371 17.4626 35 16.6487 35 15.8C35 14.1026 34.3257 12.4747 33.1255 11.2745C31.9252 10.0743 30.2974 9.4 28.6 9.4C26.9026 9.4 25.2748 10.0743 24.0745 11.2745C22.8743 12.4747 22.2 14.1026 22.2 15.8V22.2H51C51.8487 22.2 52.6626 22.5371 53.2627 23.1373C53.8629 23.7374 54.2 24.5513 54.2 25.4V63.8C54.2 64.6487 53.8629 65.4626 53.2627 66.0627C52.6626 66.6629 51.8487 67 51 67H6.2C5.35131 67 4.53738 66.6629 3.93726 66.0627C3.33714 65.4626 3 64.6487 3 63.8V25.4C3 24.5513 3.33714 23.7374 3.93726 23.1373C4.53738 22.5371 5.35131 22.2 6.2 22.2C7.04869 22.2 7.86262 22.5371 8.46274 23.1373C9.06286 23.7374 9.4 24.5513 9.4 25.4V60.6H47.8V28.6H19C18.1513 28.6 17.3374 28.2629 16.7373 27.6627C16.1371 27.0626 15.8 26.2487 15.8 25.4Z" fill="#38B863" stroke="white" stroke-width="4.5"/>
<defs>
<linearGradient id="paint0_linear" x1="28.5" y1="36" x2="28.5" y2="62" gradientUnits="userSpaceOnUse">
<stop offset="0.265625" stop-color="#A2FFC7"/>
<stop offset="0.645833" stop-color="#E1FDEE"/>
</linearGradient>
</defs>
</svg>
