<svg width="31" height="32" viewBox="0 0 31 32" fill="none" xmlns="http://www.w3.org/2000/svg">
<path d="M0 0H31C31 0 31 3.66667 31 17.8333C31 32 15.5 32 15.5 32C15.5 32 0 32 0 17.8333C0 3.66667 0 0 0 0Z" fill="#38B863"/>
<path d="M19.661 18.5439H11.8306L11.1361 20.2313L11.0156 20.5239H12.5255C12.5234 20.5107 12.5214 20.4974 12.5214 20.4836V20.2313V19.7516C12.5214 19.6099 12.6362 19.495 12.7779 19.495C12.9196 19.495 13.0345 19.6099 13.0345 19.7516V20.2313V20.4836C13.0345 20.4974 13.0325 20.5107 13.0304 20.5239H15.4934C15.4913 20.5107 15.4893 20.4974 15.4893 20.4836V20.2313V19.7516C15.4893 19.6099 15.6041 19.495 15.7458 19.495C15.8875 19.495 16.0024 19.6099 16.0024 19.7516V20.2313V20.4836C16.0024 20.4974 16.0004 20.5107 15.9983 20.5239H18.4613C18.4592 20.5107 18.4572 20.4974 18.4572 20.4836V20.2313V19.7516C18.4572 19.6099 18.572 19.495 18.7138 19.495C18.8555 19.495 18.9703 19.6099 18.9703 19.7516V20.2313V20.4836C18.9703 20.4974 18.9683 20.5107 18.9662 20.5239H20.4761L20.3556 20.2313L19.661 18.5439Z" fill="white"/>
<path d="M26.3392 11.9584C26.288 11.8097 26.107 11.694 25.9559 11.694C25.3014 11.694 24.6469 11.694 23.9924 11.694C23.8412 11.694 23.6602 11.8098 23.6091 11.9584C23.5389 12.1629 23.494 12.3362 23.4734 12.5008C22.6097 10.8379 21.6534 8.98709 21.6534 8.98709C21.5594 8.72427 21.3322 8.5318 21.0576 8.48213C19.2887 8.16218 17.5012 8 15.7447 8C13.9882 8 12.2003 8.16218 10.4307 8.48213C10.1561 8.53175 9.92887 8.72427 9.83482 8.98704C9.83482 8.98704 8.87848 10.8379 8.01485 12.5007C7.99423 12.3362 7.94934 12.1628 7.8791 11.9584C7.82804 11.8097 7.64698 11.694 7.49585 11.694C6.84141 11.694 6.18686 11.694 5.53242 11.694C5.38129 11.694 5.20024 11.8097 5.14907 11.9584C4.95022 12.5373 4.95038 12.8688 5.14912 13.4477C5.20024 13.5964 5.38129 13.7121 5.53242 13.7121C6.18568 13.7121 6.83894 13.7121 7.49215 13.7121C7.49256 13.7366 7.49395 13.761 7.49667 13.7853C7.0834 13.9107 6.78253 14.2944 6.78253 14.7486V18.9742V19.2247V21.3999C6.78253 21.6671 6.99907 21.8838 7.26636 21.8838H9.70179C9.96903 21.8838 10.1857 21.6671 10.1857 21.3999V20.2315H10.5796L11.4199 18.19C11.4595 18.0938 11.5532 18.0311 11.6571 18.0311H19.8312C19.9352 18.0311 20.0289 18.0938 20.0684 18.19L20.9087 20.2315H21.3027V21.3999C21.3027 21.6671 21.5193 21.8838 21.7865 21.8838H24.222C24.4892 21.8838 24.7058 21.6671 24.7058 21.3999V19.2247V18.9742V14.7486C24.7058 14.2944 24.4049 13.9107 23.9917 13.7853C23.9944 13.761 23.9958 13.7366 23.9962 13.7121C24.6494 13.7121 25.3026 13.7121 25.9559 13.7121C26.107 13.7121 26.2881 13.5965 26.3393 13.4477C26.5381 12.8688 26.5379 12.5373 26.3392 11.9584ZM10.9144 9.55715C10.9144 9.55715 12.0838 9.26034 15.7441 9.26034C19.4045 9.26034 20.5738 9.55715 20.5738 9.55715L22.2903 13.7122H9.19801L10.9144 9.55715ZM8.78114 16.7468V15.3817H11.7378L12.6163 16.7468H8.78114ZM22.7071 16.7468H18.8719L19.7504 15.3817H22.7071V16.7468Z" fill="white"/>
</svg>
