<svg width="64" height="75" viewBox="0 0 64 75" fill="none" xmlns="http://www.w3.org/2000/svg">
<path d="M26.2018 41.02L11.9891 21.1221C15.8525 20.2522 20.6705 19.5 25.5 19.5C31.8615 19.5 38.0204 20.8059 42 21.9552V25.2218L26.2018 41.02Z" fill="url(#paint0_linear)" stroke="white" stroke-width="11"/>
<path d="M45.9485 34.724V31.9476L43.9853 33.9108L27.0484 50.8477C26.664 51.232 26.1427 51.4479 25.5991 51.4479C25.0556 51.4479 24.5343 51.232 24.1499 50.8477L14.5581 41.256C14.1886 40.8701 13.9843 40.355 13.989 39.8205C13.9936 39.2831 14.2092 38.7689 14.5893 38.3889C14.9694 38.0088 15.4835 37.7932 16.021 37.7885C16.5555 37.7839 17.0705 37.9882 17.4564 38.3577L24.786 45.6872L25.5991 46.5004L26.4123 45.6872L46.5492 25.5503C47.8408 24.2587 50.0483 25.1731 50.0483 26.9995V51.5711C50.0483 51.5712 50.0483 51.5713 50.0483 51.5714C50.0474 54.1887 49.3547 56.7593 48.0405 59.0227C46.7261 61.2862 44.8369 63.1621 42.5641 64.4604L42.5637 64.4606L26.6159 73.5801C26.6157 73.5802 26.6156 73.5802 26.6154 73.5803C26.3059 73.757 25.9556 73.85 25.5991 73.85C25.2427 73.85 24.8923 73.757 24.5828 73.5803C24.5826 73.5802 24.5825 73.5801 24.5824 73.5801L8.6313 64.4606L8.63116 64.4605C6.35938 63.1621 4.47101 61.2865 3.15727 59.0236C1.84361 56.7608 1.15115 54.1911 1.15 51.5746C1.15 51.5745 1.15 51.5743 1.15 51.5742L1.15 17.3998L1.15 17.3991C1.14975 16.9536 1.29468 16.5201 1.56284 16.1643C1.831 15.8084 2.20779 15.5497 2.63617 15.4271L2.63617 15.4272L2.63938 15.4262C10.1026 13.268 17.8313 12.1653 25.6003 12.15C33.2548 12.1501 40.911 13.2443 48.5623 15.4272C49.0854 15.5768 49.5278 15.928 49.7919 16.4037C50.0561 16.8794 50.1205 17.4405 49.971 17.9637C49.8214 18.4868 49.4702 18.9292 48.9945 19.1933C48.5193 19.4572 47.9588 19.5218 47.4361 19.3728C40.3394 17.3179 32.99 16.2666 25.6018 16.2498H25.5991C19.1068 16.2498 12.6117 17.0785 6.11589 18.7333L5.24978 18.9539V19.8477V51.5714V51.5718C5.25039 53.4666 5.75182 55.3275 6.70326 56.9661C7.65465 58.6046 9.02221 59.9626 10.6674 60.9024C10.6675 60.9024 10.6675 60.9025 10.6676 60.9025L25.0285 69.1101L25.5991 69.4362L26.1698 69.1101L40.5306 60.9025C40.5307 60.9025 40.5308 60.9024 40.5309 60.9024C42.1755 59.9629 43.5428 58.6055 44.4941 56.9677C45.4455 55.3298 45.9472 53.4696 45.9485 51.5754V51.5746V34.724Z" fill="#38B863" stroke="white" stroke-width="2.3"/>
<circle cx="49" cy="15" r="15" fill="#38B863"/>
<path d="M48.01 9.48L45.7 10.362V12.672L47.38 12.042V16.83H45.7V19H51.384V16.83H49.9V9.48H48.01Z" fill="white"/>
<defs>
<linearGradient id="paint0_linear" x1="25.25" y1="14" x2="25.25" y2="49.5" gradientUnits="userSpaceOnUse">
<stop offset="0.265625" stop-color="#A2FFC7"/>
<stop offset="0.645833" stop-color="#E1FDEE"/>
</linearGradient>
</defs>
</svg>
