<svg width="40" height="50" viewBox="0 0 40 50" fill="none" xmlns="http://www.w3.org/2000/svg">
<path d="M35.8988 16.3616V18.5344V31.6989V31.6995C35.8978 33.1796 35.5058 34.6332 34.7624 35.913C34.019 37.1928 32.9506 38.2535 31.6655 38.9876C31.6655 38.9876 31.6654 38.9877 31.6653 38.9877L20.4459 45.3999L19.9993 45.6551L19.5527 45.3999L8.3333 38.9877C8.33324 38.9877 8.33318 38.9876 8.33312 38.9876C7.04759 38.2532 5.97898 37.1921 5.23557 35.9118C4.49212 34.6314 4.10031 33.1773 4.09983 31.6967V31.6964V6.91227V6.21279L4.77766 6.04012C9.85262 4.7473 14.927 4.09983 19.9993 4.09983H20.0014C25.7736 4.11301 31.5155 4.9343 37.06 6.53979M35.8988 16.3616L36.8113 7.40475M35.8988 16.3616L34.3624 17.898L21.1305 31.1299C21.1304 31.13 21.1304 31.13 21.1304 31.13C20.8303 31.4299 20.4235 31.5984 19.9993 31.5984C19.5751 31.5984 19.1683 31.4299 18.8683 31.13C18.8682 31.13 18.8682 31.13 18.8682 31.1299L11.3746 23.6364C11.0863 23.3352 10.9268 22.9332 10.9304 22.5161C10.9341 22.0966 11.1023 21.6953 11.399 21.3986C11.6956 21.102 12.0969 20.9337 12.5164 20.9301C12.9336 20.9265 13.3356 21.0859 13.6368 21.3743L19.3629 27.1005L19.9993 27.7369L20.6357 27.1005L36.3677 11.3685C37.3758 10.3604 39.0986 11.0741 39.0986 12.4996V31.6961C39.0986 31.6962 39.0986 31.6963 39.0986 31.6964C39.0979 33.7409 38.5569 35.7489 37.5303 37.517C36.5036 39.2851 35.0278 40.7505 33.2525 41.7646L33.2521 41.7648L20.7929 48.8893C20.7928 48.8894 20.7926 48.8895 20.7925 48.8895C20.5509 49.0275 20.2775 49.1 19.9993 49.1C19.7211 49.1 19.4477 49.0274 19.2061 48.8895C19.206 48.8894 19.2059 48.8894 19.2058 48.8893L6.74398 41.7647L6.74387 41.7647C4.96928 40.7505 3.49419 39.2853 2.46797 37.5177C1.44181 35.7501 0.9009 33.7428 0.9 31.6989C0.9 31.6988 0.9 31.6987 0.9 31.6986L0.900001 4.99983L0.9 4.99933C0.899807 4.65158 1.01292 4.31323 1.22222 4.03552C1.43151 3.75781 1.7256 3.55584 2.05994 3.46021L2.05994 3.46022L2.06245 3.45949C7.89297 1.77346 13.9308 0.911933 20.0002 0.9M35.8988 16.3616L20.0002 0.9M37.06 6.53979C37.0605 6.53995 37.0611 6.54011 37.0616 6.54027L36.8113 7.40475M37.06 6.53979C37.0595 6.53966 37.0591 6.53954 37.0586 6.53941L36.8113 7.40475M37.06 6.53979C37.4679 6.65603 37.9053 6.60565 38.2762 6.39968C38.6474 6.19349 38.9216 5.84826 39.0383 5.43994C39.155 5.03162 39.1048 4.59365 38.8986 4.22239C38.6924 3.85112 38.3472 3.57697 37.9388 3.46025M36.8113 7.40475C37.4491 7.58708 38.1332 7.50857 38.7131 7.18648C39.2931 6.8644 39.7213 6.32513 39.9036 5.68731C40.086 5.04948 40.0075 4.36535 39.6854 3.78542C39.3633 3.20548 38.824 2.77724 38.1862 2.59491M37.9388 3.46025C37.939 3.46029 37.9391 3.46034 37.9393 3.46038L38.1862 2.59491M37.9388 3.46025C31.9614 1.75493 25.9801 0.900083 20.0002 0.9M37.9388 3.46025L38.1862 2.59491M38.1862 2.59491L20.0002 0.9" fill="#38B863" stroke="white" stroke-width="1.8"/>
</svg>
