<svg width="64" height="64" viewBox="0 0 64 64" fill="none" xmlns="http://www.w3.org/2000/svg">
<path d="M14.2222 12.0167H15.5722V10.6667V3.55556C15.5722 2.97061 15.8046 2.40961 16.2182 1.99599C16.6318 1.58237 17.1928 1.35 17.7778 1.35H46.2222C46.8072 1.35 47.3682 1.58237 47.7818 1.99599L48.7337 1.0441L47.7818 1.99599C48.1954 2.40961 48.4278 2.9706 48.4278 3.55556V10.6667V12.0167H49.7778H60.4444C61.0294 12.0167 61.5904 12.249 62.004 12.6627C62.4176 13.0763 62.65 13.6373 62.65 14.2222V28.4444C62.65 29.0294 62.4176 29.5904 62.004 30.004C61.5904 30.4176 61.0294 30.65 60.4444 30.65C59.8595 30.65 59.2985 30.4176 58.8849 30.004C58.4713 29.5904 58.2389 29.0294 58.2389 28.4444V17.7778V16.4278H56.8889H7.11111H5.76111V17.7778V35.5556V36.9056H7.11111H21.9378H22.893L23.2109 36.0048C23.8525 34.1863 25.0424 32.6116 26.6166 31.4977C28.1907 30.3839 30.0716 29.7857 32 29.7857C33.9284 29.7857 35.8093 30.3839 37.3834 31.4977C38.9576 32.6116 40.1475 34.1863 40.7891 36.0048L41.107 36.9056H42.0622H56.8889C57.4738 36.9056 58.0348 37.1379 58.4485 37.5516C58.8621 37.9652 59.0944 38.5262 59.0944 39.1111V60.4444C59.0944 61.0294 58.8621 61.5904 58.4485 62.004C58.0348 62.4176 57.4738 62.65 56.8889 62.65H7.11111C6.52616 62.65 5.96517 62.4176 5.55155 62.004C5.13793 61.5904 4.90556 61.0294 4.90556 60.4444V49.7778C4.90556 49.1928 5.13793 48.6318 5.55155 48.2182L4.59695 47.2636L5.55155 48.2182C5.96517 47.8046 6.52616 47.5722 7.11111 47.5722C7.69606 47.5722 8.25705 47.8046 8.67067 48.2182C9.08429 48.6318 9.31667 49.1928 9.31667 49.7778V56.8889V58.2389H10.6667H53.3333H54.6833V56.8889V42.6667V41.3167H53.3333H42.0622H41.107L40.7891 42.2175C40.1475 44.036 38.9576 45.6107 37.3834 46.7245C35.8093 47.8383 33.9284 48.4365 32 48.4365C30.0716 48.4365 28.1907 47.8383 26.6166 46.7245C25.0424 45.6107 23.8525 44.036 23.2109 42.2175L22.893 41.3167H21.9378H3.55556C2.97061 41.3167 2.40962 41.0843 1.99599 40.6707L1.0414 41.6253L1.99599 40.6707C1.58237 40.2571 1.35 39.6961 1.35 39.1111V14.2222C1.35 13.6373 1.58237 13.0763 1.99599 12.6627L1.0414 11.7081L1.99599 12.6627C2.40961 12.249 2.97061 12.0167 3.55556 12.0167H14.2222ZM21.3333 5.76111H19.9833V7.11111V10.6667V12.0167H21.3333H42.6667H44.0167V10.6667V7.11111V5.76111H42.6667H21.3333ZM32 44.0167C33.301 44.0167 34.5488 43.4998 35.4688 42.5799C36.3887 41.6599 36.9056 40.4121 36.9056 39.1111C36.9056 37.8101 36.3887 36.5623 35.4688 35.6424C34.5488 34.7224 33.301 34.2056 32 34.2056C30.699 34.2056 29.4512 34.7224 28.5312 35.6424C27.6113 36.5623 27.0944 37.8101 27.0944 39.1111C27.0944 40.4121 27.6113 41.6599 28.5312 42.5799C29.4512 43.4998 30.699 44.0167 32 44.0167Z" fill="#38B863" stroke="white" stroke-width="2.7"/>
</svg>
