<svg width="76" height="75" viewBox="0 0 76 75" fill="none" xmlns="http://www.w3.org/2000/svg">
<rect x="8.5" y="29.5" width="47" height="10" fill="url(#paint0_linear)" stroke="white" stroke-width="7"/>
<path d="M14.2222 23.0167H15.5722V21.6667V14.5556C15.5722 13.9706 15.8046 13.4096 16.2182 12.996C16.6318 12.5824 17.1928 12.35 17.7778 12.35H46.2222C46.8072 12.35 47.3682 12.5824 47.7818 12.996L48.7337 12.0441L47.7818 12.996C48.1954 13.4096 48.4278 13.9706 48.4278 14.5556V21.6667V23.0167H49.7778H60.4444C61.0294 23.0167 61.5904 23.249 62.004 23.6627C62.4176 24.0763 62.65 24.6373 62.65 25.2222V39.4444C62.65 40.0294 62.4176 40.5904 62.004 41.004C61.5904 41.4176 61.0294 41.65 60.4444 41.65C59.8595 41.65 59.2985 41.4176 58.8849 41.004C58.4713 40.5904 58.2389 40.0294 58.2389 39.4444V28.7778V27.4278H56.8889H7.11111H5.76111V28.7778V46.5556V47.9056H7.11111H21.9378H22.893L23.2109 47.0048C23.8525 45.1863 25.0424 43.6116 26.6166 42.4977C28.1907 41.3839 30.0716 40.7857 32 40.7857C33.9284 40.7857 35.8093 41.3839 37.3834 42.4977C38.9576 43.6116 40.1475 45.1863 40.7891 47.0048L41.107 47.9056H42.0622H56.8889C57.4738 47.9056 58.0348 48.1379 58.4485 48.5516C58.8621 48.9652 59.0944 49.5262 59.0944 50.1111V71.4444C59.0944 72.0294 58.8621 72.5904 58.4485 73.004C58.0348 73.4176 57.4738 73.65 56.8889 73.65H7.11111C6.52616 73.65 5.96517 73.4176 5.55155 73.004C5.13793 72.5904 4.90556 72.0294 4.90556 71.4444V60.7778C4.90556 60.1928 5.13793 59.6318 5.55155 59.2182L4.59695 58.2636L5.55155 59.2182C5.96517 58.8046 6.52616 58.5722 7.11111 58.5722C7.69606 58.5722 8.25705 58.8046 8.67067 59.2182C9.08429 59.6318 9.31667 60.1928 9.31667 60.7778V67.8889V69.2389H10.6667H53.3333H54.6833V67.8889V53.6667V52.3167H53.3333H42.0622H41.107L40.7891 53.2175C40.1475 55.036 38.9576 56.6107 37.3834 57.7245C35.8093 58.8383 33.9284 59.4365 32 59.4365C30.0716 59.4365 28.1907 58.8383 26.6166 57.7245C25.0424 56.6107 23.8525 55.036 23.2109 53.2175L22.893 52.3167H21.9378H3.55556C2.97061 52.3167 2.40962 52.0843 1.99599 51.6707L1.0414 52.6253L1.99599 51.6707C1.58237 51.2571 1.35 50.6961 1.35 50.1111V25.2222C1.35 24.6373 1.58237 24.0763 1.99599 23.6627L1.0414 22.7081L1.99599 23.6627C2.40961 23.249 2.97061 23.0167 3.55556 23.0167H14.2222ZM21.3333 16.7611H19.9833V18.1111V21.6667V23.0167H21.3333H42.6667H44.0167V21.6667V18.1111V16.7611H42.6667H21.3333ZM32 55.0167C33.301 55.0167 34.5488 54.4998 35.4688 53.5799C36.3887 52.6599 36.9056 51.4121 36.9056 50.1111C36.9056 48.8101 36.3887 47.5623 35.4688 46.6424C34.5488 45.7224 33.301 45.2056 32 45.2056C30.699 45.2056 29.4512 45.7224 28.5312 46.6424C27.6113 47.5623 27.0944 48.8101 27.0944 50.1111C27.0944 51.4121 27.6113 52.6599 28.5312 53.5799C29.4512 54.4998 30.699 55.0167 32 55.0167Z" fill="#38B863" stroke="white" stroke-width="2.7"/>
<circle cx="61" cy="15" r="15" fill="#38B863"/>
<path d="M62.068 9.48L57.308 15.36V17.46H62.138V19H64.588V17.46H65.848V15.36H64.588V9.48H62.068ZM62.138 15.36H59.884L62.138 12.574V15.36Z" fill="white"/>
<defs>
<linearGradient id="paint0_linear" x1="32" y1="26" x2="32" y2="43" gradientUnits="userSpaceOnUse">
<stop offset="0.265625" stop-color="#A2FFC7"/>
<stop offset="0.645833" stop-color="#E1FDEE"/>
</linearGradient>
</defs>
</svg>
