<svg width="50" height="50" viewBox="0 0 50 50" fill="none" xmlns="http://www.w3.org/2000/svg">
<path d="M11.1111 9.43333H12.2111V8.33333V2.77778C12.2111 2.3328 12.3879 1.90605 12.7025 1.59141C13.0172 1.27677 13.4439 1.1 13.8889 1.1H36.1111C36.5561 1.1 36.9828 1.27677 37.2975 1.59141C37.6121 1.90605 37.7889 2.3328 37.7889 2.77778V8.33333V9.43333H38.8889H47.2222C47.6672 9.43333 48.0939 9.6101 48.4086 9.92474C48.7232 10.2394 48.9 10.6661 48.9 11.1111V22.2222C48.9 22.6672 48.7232 23.0939 48.4086 23.4086C48.0939 23.7232 47.6672 23.9 47.2222 23.9C46.7772 23.9 46.3505 23.7232 46.0359 23.4086C45.7212 23.0939 45.5444 22.6672 45.5444 22.2222V13.8889V12.7889H44.4444H5.55556H4.45556V13.8889V27.7778V28.8778H5.55556H17.1389H17.9172L18.1762 28.1438C18.6744 26.7319 19.5982 25.5094 20.8204 24.6446C22.0425 23.7798 23.5028 23.3154 25 23.3154C26.4972 23.3154 27.9575 23.7798 29.1796 24.6446C30.4018 25.5094 31.3256 26.7319 31.8238 28.1438L32.0828 28.8778H32.8611H44.4444C44.8894 28.8778 45.3162 29.0545 45.6308 29.3692C45.9455 29.6838 46.1222 30.1106 46.1222 30.5556V47.2222C46.1222 47.6672 45.9455 48.0939 45.6308 48.4086C45.3162 48.7232 44.8894 48.9 44.4444 48.9H5.55556C5.11058 48.9 4.68383 48.7232 4.36919 48.4086C4.05454 48.0939 3.87778 47.6672 3.87778 47.2222V38.8889C3.87778 38.4439 4.05454 38.0172 4.36919 37.7025L3.59137 36.9247L4.36919 37.7025C4.68383 37.3879 5.11058 37.2111 5.55556 37.2111C6.00053 37.2111 6.42728 37.3879 6.74192 37.7025L7.49292 36.9515L6.74192 37.7025C7.05657 38.0172 7.23333 38.4439 7.23333 38.8889V44.4444V45.5444H8.33333H41.6667H42.7667V44.4444V33.3333V32.2333H41.6667H32.8611H32.0828L31.8238 32.9673C31.3256 34.3792 30.4018 35.6017 29.1796 36.4665C27.9575 37.3313 26.4972 37.7957 25 37.7957C23.5028 37.7957 22.0425 37.3313 20.8204 36.4665C19.5982 35.6017 18.6744 34.3792 18.1762 32.9673L17.9172 32.2333H17.1389H2.77778C2.3328 32.2333 1.90605 32.0566 1.59141 31.7419C1.27676 31.4273 1.1 31.0005 1.1 30.5556V11.1111C1.1 10.6661 1.27677 10.2394 1.59141 9.92474C1.90605 9.6101 2.3328 9.43333 2.77778 9.43333H11.1111ZM16.6667 4.45556H15.5667V5.55556V8.33333V9.43333H16.6667H33.3333H34.4333V8.33333V5.55556V4.45556H33.3333H16.6667ZM25 34.4333C26.0285 34.4333 27.0148 34.0248 27.742 33.2976C28.4692 32.5703 28.8778 31.584 28.8778 30.5556C28.8778 29.5271 28.4692 28.5408 27.742 27.8136C27.0148 27.0863 26.0285 26.6778 25 26.6778C23.9715 26.6778 22.9852 27.0863 22.258 27.8136C21.5308 28.5408 21.1222 29.5271 21.1222 30.5556C21.1222 31.584 21.5308 32.5703 22.258 33.2976C22.9852 34.0248 23.9715 34.4333 25 34.4333Z" fill="#38B863" stroke="white" stroke-width="2.2"/>
</svg>
