<svg width="11" height="19" viewBox="0 0 11 19" fill="none" xmlns="http://www.w3.org/2000/svg">
<path d="M5.68748 2.77467C6.76843 2.77467 7.6477 3.65394 7.6477 4.73489C7.6477 5.81494 6.76821 6.6942 5.68748 6.6942C4.60721 6.6942 3.72771 5.81494 3.72771 4.73489C3.72749 3.65371 4.60743 2.77467 5.68748 2.77467ZM5.68748 9.46752C8.29854 9.46752 10.4219 7.34481 10.4219 4.73489C10.4219 2.12361 8.29876 0 5.68748 0C3.07665 0 0.953042 2.12383 0.953042 4.73489C0.953042 7.34481 3.07665 9.46752 5.68748 9.46752ZM7.60283 13.3293C8.57678 13.1074 9.50623 12.7226 10.3519 12.191C10.6632 11.9951 10.884 11.6836 10.9656 11.3249C11.0473 10.9663 10.9831 10.5899 10.7872 10.2786C10.6904 10.1243 10.564 9.99057 10.4154 9.88513C10.2668 9.77968 10.0989 9.70457 9.92129 9.66407C9.74365 9.62358 9.55978 9.6185 9.38017 9.64913C9.20057 9.67975 9.02877 9.74549 8.87459 9.84256C6.935 11.062 4.4386 11.0611 2.50059 9.84256C2.34644 9.74546 2.17466 9.67971 1.99507 9.64907C1.81548 9.61843 1.63161 9.6235 1.45398 9.664C1.27635 9.7045 1.10845 9.77962 0.959893 9.88508C0.811331 9.99053 0.685021 10.1242 0.588192 10.2786C0.392262 10.5898 0.327984 10.9661 0.409494 11.3248C0.491004 11.6834 0.711627 11.995 1.02284 12.191C1.86844 12.7224 2.79771 13.1072 3.77145 13.3293L1.12482 15.9763C0.864724 16.2365 0.718643 16.5894 0.718707 16.9573C0.71877 17.3252 0.864974 17.6779 1.12516 17.938C1.38534 18.1981 1.73818 18.3442 2.10607 18.3441C2.47396 18.3441 2.82676 18.1979 3.08685 17.9377L5.68703 15.3371L8.28879 17.9379C8.41743 18.0668 8.57021 18.169 8.73839 18.2387C8.90657 18.3084 9.08684 18.3443 9.2689 18.3443C9.45096 18.3443 9.63124 18.3084 9.79941 18.2387C9.96759 18.169 10.1204 18.0668 10.249 17.9379C10.378 17.8093 10.4804 17.6565 10.5502 17.4882C10.6201 17.3199 10.656 17.1395 10.656 16.9574C10.656 16.7752 10.6201 16.5948 10.5502 16.4265C10.4804 16.2583 10.378 16.1054 10.249 15.9768L7.60283 13.3293Z" fill="#199568"/>
</svg>
