<svg width="92" height="75" viewBox="0 0 92 75" fill="none" xmlns="http://www.w3.org/2000/svg">
<path d="M8 28V17H72V28H8Z" fill="url(#paint0_linear)" stroke="white" stroke-width="6"/>
<path d="M8 33.5H6.5V35V67V68.5H8H72H73.5V67V19V17.5H72H8H6.5V19V27V28.5H8H60C60.663 28.5 61.2989 28.7634 61.7678 29.2322C62.2366 29.7011 62.5 30.337 62.5 31C62.5 31.663 62.2366 32.2989 61.7678 32.7678C61.2989 33.2366 60.663 33.5 60 33.5H8ZM76 73.5H4C3.33696 73.5 2.70107 73.2366 2.23223 72.7678C1.76339 72.2989 1.5 71.663 1.5 71V15C1.5 14.337 1.76339 13.7011 2.23223 13.2322C2.70107 12.7634 3.33696 12.5 4 12.5H76C76.663 12.5 77.2989 12.7634 77.7678 13.2322C78.2366 13.7011 78.5 14.337 78.5 15V71C78.5 71.663 78.2366 72.2989 77.7678 72.7678C77.2989 73.2366 76.663 73.5 76 73.5ZM20 57.5C19.337 57.5 18.7011 57.2366 18.2322 56.7678C17.7634 56.2989 17.5 55.663 17.5 55C17.5 54.337 17.7634 53.7011 18.2322 53.2322C18.7011 52.7634 19.337 52.5 20 52.5H28C28.663 52.5 29.2989 52.7634 29.7678 53.2322C30.2366 53.7011 30.5 54.337 30.5 55C30.5 55.663 30.2366 56.2989 29.7678 56.7678C29.2989 57.2366 28.663 57.5 28 57.5H20ZM40 57.5C39.337 57.5 38.7011 57.2366 38.2322 56.7678C37.7634 56.2989 37.5 55.663 37.5 55C37.5 54.337 37.7634 53.7011 38.2322 53.2322C38.7011 52.7634 39.337 52.5 40 52.5H44C44.663 52.5 45.2989 52.7634 45.7678 53.2322C46.2366 53.7011 46.5 54.337 46.5 55C46.5 55.663 46.2366 56.2989 45.7678 56.7678C45.2989 57.2366 44.663 57.5 44 57.5H40Z" fill="#38B863" stroke="white" stroke-width="3"/>
<circle cx="77" cy="15" r="15" fill="#38B863"/>
<path d="M73.84 10.32V12.7C74.876 11.888 76.052 11.51 77.004 11.51C77.732 11.51 78.25 11.79 78.25 12.364C78.25 13.092 77.522 13.358 76.64 13.876C75.282 14.674 73.532 15.57 73.532 17.866V19H80.91V16.83H76.5C76.5 16.578 77.298 16.13 78.32 15.514C79.524 14.786 80.84 13.834 80.84 12.224C80.84 10.11 79.146 9.27 77.242 9.27C76.024 9.27 74.848 9.606 73.84 10.32Z" fill="white"/>
<defs>
<linearGradient id="paint0_linear" x1="40" y1="14" x2="40" y2="31" gradientUnits="userSpaceOnUse">
<stop offset="0.265625" stop-color="#A2FFC7"/>
<stop offset="0.645833" stop-color="#E1FDEE"/>
</linearGradient>
</defs>
</svg>
