<svg width="60" height="51" viewBox="0 0 60 51" fill="none" xmlns="http://www.w3.org/2000/svg">
<path d="M5 25.05H4.05V26V46V46.95H5H45H45.95V46V16V15.05H45H5H4.05V16V21V21.95H5H37.5C37.9111 21.95 38.3053 22.1133 38.596 22.404C38.8867 22.6947 39.05 23.0889 39.05 23.5C39.05 23.9111 38.8867 24.3053 38.596 24.596C38.3053 24.8867 37.9111 25.05 37.5 25.05H5ZM47.5 50.05H2.5C2.08891 50.05 1.69466 49.8867 1.40398 49.596C1.1133 49.3053 0.95 48.9111 0.95 48.5V13.5C0.95 13.0889 1.1133 12.6947 1.40398 12.404C1.69467 12.1133 2.08891 11.95 2.5 11.95H47.5C47.9111 11.95 48.3053 12.1133 48.596 12.404C48.8867 12.6947 49.05 13.0889 49.05 13.5V48.5C49.05 48.9111 48.8867 49.3053 48.596 49.596C48.3053 49.8867 47.9111 50.05 47.5 50.05ZM12.5 40.05C12.0889 40.05 11.6947 39.8867 11.404 39.596C11.1133 39.3053 10.95 38.9111 10.95 38.5C10.95 38.0889 11.1133 37.6947 11.404 37.404C11.6947 37.1133 12.0889 36.95 12.5 36.95H17.5C17.9111 36.95 18.3053 37.1133 18.596 37.404C18.8867 37.6947 19.05 38.0889 19.05 38.5C19.05 38.9111 18.8867 39.3053 18.596 39.596C18.3053 39.8867 17.9111 40.05 17.5 40.05H12.5ZM25 40.05C24.5889 40.05 24.1947 39.8867 23.904 39.596C23.6133 39.3053 23.45 38.9111 23.45 38.5C23.45 38.0889 23.6133 37.6947 23.904 37.404C24.1947 37.1133 24.5889 36.95 25 36.95H27.5C27.9111 36.95 28.3053 37.1133 28.596 37.404C28.8867 37.6947 29.05 38.0889 29.05 38.5C29.05 38.9111 28.8867 39.3053 28.596 39.596C28.3053 39.8867 27.9111 40.05 27.5 40.05H25Z" fill="#38B863" stroke="white" stroke-width="1.9"/>
<circle cx="45" cy="15" r="15" fill="#38B863"/>
<path d="M41.84 10.32V12.7C42.876 11.888 44.052 11.51 45.004 11.51C45.732 11.51 46.25 11.79 46.25 12.364C46.25 13.092 45.522 13.358 44.64 13.876C43.282 14.674 41.532 15.57 41.532 17.866V19H48.91V16.83H44.5C44.5 16.578 45.298 16.13 46.32 15.514C47.524 14.786 48.84 13.834 48.84 12.224C48.84 10.11 47.146 9.27 45.242 9.27C44.024 9.27 42.848 9.606 41.84 10.32Z" fill="white"/>
</svg>
