<svg width="40" height="40" viewBox="0 0 40 40" fill="none" xmlns="http://www.w3.org/2000/svg">
<circle cx="20" cy="20" r="20" fill="#38B863"/>
<path d="M16.4723 22.8018C16.0995 22.0213 16.0146 21.1342 16.2326 20.2972C16.4507 19.4602 16.9576 18.7272 17.6638 18.2278C18.37 17.7284 19.23 17.4948 20.0918 17.5681C20.9537 17.6415 21.7618 18.0172 22.3734 18.6288C22.985 19.2404 23.3607 20.0485 23.4341 20.9104C23.5074 21.7722 23.2738 22.6322 22.7744 23.3384C22.275 24.0446 21.542 24.5515 20.705 24.7696C19.868 24.9876 18.9809 24.9027 18.2004 24.5299L14.7881 27.9447L24.9297 26.2544L27.1614 18.441C27.2188 18.2414 27.326 18.0597 27.4731 17.9131L29.0534 16.3328L24.6706 11.9501L23.0904 13.5303C22.9437 13.6774 22.762 13.7847 22.5624 13.842L14.7124 16.0847L13.0331 23.9225C12.965 24.2395 12.7738 24.5165 12.5015 24.6925C12.2292 24.8685 11.8982 24.9292 11.5811 24.8611C11.2641 24.7931 10.9871 24.6018 10.8111 24.3295C10.6351 24.0573 10.5744 23.7262 10.6425 23.4092L12.4758 14.854C12.5222 14.6373 12.6267 14.4373 12.778 14.2754C12.9294 14.1135 13.1219 13.9958 13.335 13.9349L21.5859 11.5785L23.8066 9.35784C24.0357 9.12871 24.3466 9 24.6706 9C24.9947 9 25.3055 9.12871 25.5347 9.35784L31.6456 15.4687C31.8747 15.6979 32.0034 16.0087 32.0034 16.3328C32.0034 16.6569 31.8747 16.9677 31.6456 17.1969L29.4249 19.4176L27.0685 27.6672C27.005 27.8897 26.8796 28.0896 26.707 28.2437C26.5343 28.3977 26.3215 28.4996 26.0932 28.5374L11.4271 30.9818C10.2539 31.1773 9.52178 29.7535 10.3626 28.9126L16.4735 22.8018H16.4723ZM19.7819 22.4437C20.1061 22.4437 20.4169 22.3149 20.6461 22.0857C20.8753 21.8565 21.0041 21.5456 21.0041 21.2215C21.0041 20.8973 20.8753 20.5865 20.6461 20.3573C20.4169 20.1281 20.1061 19.9993 19.7819 19.9993C19.4578 19.9993 19.1469 20.1281 18.9177 20.3573C18.6885 20.5865 18.5598 20.8973 18.5598 21.2215C18.5598 21.5456 18.6885 21.8565 18.9177 22.0857C19.1469 22.3149 19.4578 22.4437 19.7819 22.4437Z" fill="white" stroke="#38B863"/>
</svg>
