<svg width="18" height="18" viewBox="0 0 18 18" fill="none" xmlns="http://www.w3.org/2000/svg">
<path d="M12.856 11.4716L12.9872 11.4979L16.0522 12.1109L16.2532 12.151V12.356V15.964V16.1884L16.0301 16.2126C13.2486 16.5136 9.46434 15.2357 6.11243 11.8858C2.76138 8.5368 1.48558 4.75248 1.78762 1.97002L1.81183 1.747H2.03616H5.64716H5.85208L5.8923 1.94794L6.5053 5.01094L6.53157 5.14221L6.43687 5.23684L5.05793 6.61479C4.94711 6.72559 4.8739 6.86839 4.84862 7.02305C4.82333 7.1777 4.84726 7.33639 4.91702 7.47671L4.91754 7.47775C5.51194 8.68753 6.29956 9.79233 7.24941 10.7487C7.44813 10.9478 7.65384 11.1398 7.86615 11.3243L7.86617 11.3243C8.01597 11.4545 8.21137 11.5199 8.40937 11.5061C8.50741 11.4992 8.60314 11.4731 8.69109 11.4293C8.77905 11.3854 8.8575 11.3247 8.92198 11.2505C9.0522 11.1007 9.11757 10.9053 9.10373 10.7073C9.08988 10.5093 8.99794 10.3249 8.84814 10.1947L8.84762 10.1942C7.9513 9.41071 7.19177 8.48335 6.60021 7.45023L6.5052 7.2843L6.64045 7.14915L7.87338 5.91723C7.8734 5.9172 7.87343 5.91718 7.87345 5.91715C7.96045 5.83013 8.02464 5.72298 8.06032 5.60522C8.09601 5.48742 8.10208 5.36263 8.07799 5.24193L7.20007 0.852332L12.856 11.4716ZM12.856 11.4716L12.7614 11.5662M12.856 11.4716L12.7614 11.5662M12.7614 11.5662L11.3824 12.9442L11.3824 12.9442M12.7614 11.5662L11.3824 12.9442M11.3824 12.9442C11.242 13.0846 11.0517 13.1634 10.8532 13.1634C10.6547 13.1634 10.4643 13.0846 10.3239 12.9442C10.1836 12.8039 10.1047 12.6135 10.1047 12.415C10.1047 12.2165 10.1836 12.0262 10.3239 11.8858C10.3239 11.8858 10.3239 11.8858 10.3239 11.8858L12.0809 10.1298L12.081 10.1297M11.3824 12.9442L12.081 10.1297M12.081 10.1297C12.1681 10.0426 12.2754 9.9783 12.3933 9.94261C12.5113 9.90691 12.6362 9.90091 12.757 9.92513L12.7571 9.92515M12.081 10.1297L12.7571 9.92515M12.7571 9.92515L17.1481 10.8031L17.1483 10.8032M12.7571 9.92515L17.1483 10.8032M17.1483 10.8032C17.3181 10.837 17.471 10.9287 17.5807 11.0627C17.6905 11.1966 17.7504 11.3645 17.7502 11.5377V11.538M17.1483 10.8032L17.7502 11.538M17.7502 11.538V16.805C17.7502 16.9733 17.6934 17.1367 17.5891 17.2688C17.4848 17.4008 17.339 17.4938 17.1753 17.5328L17.2332 17.776M17.7502 11.538L17.2332 17.776M17.2332 17.776L17.1753 17.5328C13.8935 18.3137 9.14334 17.0316 5.05491 12.9442L5.05487 12.9442M17.2332 17.776L5.05487 12.9442M5.05487 12.9442C0.965614 8.85787 -0.313622 4.10774 0.46737 0.824866C0.506352 0.661022 0.599487 0.515128 0.7317 0.410799C0.863913 0.306471 1.02746 0.249815 1.19588 0.250001H1.19616M5.05487 12.9442L1.19616 0.250001M1.19616 0.250001H6.46616M1.19616 0.250001H6.46616M6.46616 0.250001C6.82168 0.250001 7.12933 0.501587 7.20001 0.85203L6.46616 0.250001Z" fill="#38B863" stroke="#E1FDF4" stroke-width="0.5"/>
</svg>
