<svg width="70" height="70" viewBox="0 0 70 70" fill="none" xmlns="http://www.w3.org/2000/svg">
<path d="M14.5 56.5V38.5H55.5V49.0779L48.244 56.5H14.5Z" fill="url(#paint0_linear)" stroke="white" stroke-width="13"/>
<path d="M45.6667 17.2222H24.3333V20.7778C24.3333 21.7208 23.9587 22.6251 23.2919 23.2919C22.6251 23.9587 21.7208 24.3333 20.7778 24.3333C19.8348 24.3333 18.9304 23.9587 18.2636 23.2919C17.5968 22.6251 17.2222 21.7208 17.2222 20.7778V17.2222H10.1111V19C10.1111 19.943 9.73651 20.8474 9.06971 21.5142C8.40292 22.181 7.49855 22.5556 6.55556 22.5556C5.61256 22.5556 4.70819 22.181 4.0414 21.5142C3.3746 20.8474 3 19.943 3 19V13.6667C3 12.7237 3.3746 11.8193 4.0414 11.1525C4.70819 10.4857 5.61256 10.1111 6.55556 10.1111H17.2222V6.55556C17.2222 5.61256 17.5968 4.70819 18.2636 4.0414C18.9304 3.3746 19.8348 3 20.7778 3C21.7208 3 22.6251 3.3746 23.2919 4.0414C23.9587 4.70819 24.3333 5.61256 24.3333 6.55556V10.1111H45.6667V6.55556C45.6667 5.61256 46.0413 4.70819 46.7081 4.0414C47.3749 3.3746 48.2792 3 49.2222 3C50.1652 3 51.0696 3.3746 51.7364 4.0414C52.4032 4.70819 52.7778 5.61256 52.7778 6.55556V10.1111H63.4444C64.3874 10.1111 65.2918 10.4857 65.9586 11.1525C66.6254 11.8193 67 12.7237 67 13.6667V52.7778C66.9998 53.7207 66.6251 54.6249 65.9582 55.2916L55.2916 65.9582C54.6249 66.6251 53.7207 66.9998 52.7778 67H6.55556C5.61256 67 4.70819 66.6254 4.0414 65.9586C3.3746 65.2918 3 64.3874 3 63.4444V31.4444C3 30.5015 3.3746 29.5971 4.0414 28.9303C4.70819 28.2635 5.61256 27.8889 6.55556 27.8889H52.7778C53.7208 27.8889 54.6251 28.2635 55.2919 28.9303C55.9587 29.5971 56.3333 30.5015 56.3333 31.4444C56.3333 32.3874 55.9587 33.2918 55.2919 33.9586C54.6251 34.6254 53.7208 35 52.7778 35H10.1111V59.8889H51.3058L59.8889 51.3058V17.2222H52.7778V20.7778C52.7778 21.7208 52.4032 22.6251 51.7364 23.2919C51.0696 23.9587 50.1652 24.3333 49.2222 24.3333C48.2792 24.3333 47.3749 23.9587 46.7081 23.2919C46.0413 22.6251 45.6667 21.7208 45.6667 20.7778V17.2222Z" fill="#38B863" stroke="white" stroke-width="5.2"/>
<defs>
<linearGradient id="paint0_linear" x1="35" y1="32" x2="35" y2="63" gradientUnits="userSpaceOnUse">
<stop offset="0.265625" stop-color="#A2FFC7"/>
<stop offset="0.645833" stop-color="#E1FDEE"/>
</linearGradient>
</defs>
</svg>
