<svg width="44" height="44" viewBox="0 0 44 44" fill="none" xmlns="http://www.w3.org/2000/svg">
<path d="M28.6667 10.8889H15.3333V13.1111C15.3333 13.7005 15.0992 14.2657 14.6825 14.6825C14.2657 15.0992 13.7005 15.3333 13.1111 15.3333C12.5217 15.3333 11.9565 15.0992 11.5398 14.6825C11.123 14.2657 10.8889 13.7005 10.8889 13.1111V10.8889H6.44444V12C6.44444 12.5894 6.21032 13.1546 5.79357 13.5713C5.37682 13.9881 4.81159 14.2222 4.22222 14.2222C3.63285 14.2222 3.06762 13.9881 2.65087 13.5713C2.23413 13.1546 2 12.5894 2 12V8.66667C2 8.0773 2.23413 7.51207 2.65087 7.09532C3.06762 6.67857 3.63285 6.44444 4.22222 6.44444H10.8889V4.22222C10.8889 3.63285 11.123 3.06762 11.5398 2.65087C11.9565 2.23413 12.5217 2 13.1111 2C13.7005 2 14.2657 2.23413 14.6825 2.65087C15.0992 3.06762 15.3333 3.63285 15.3333 4.22222V6.44444H28.6667V4.22222C28.6667 3.63285 28.9008 3.06762 29.3175 2.65087C29.7343 2.23413 30.2995 2 30.8889 2C31.4783 2 32.0435 2.23413 32.4602 2.65087C32.877 3.06762 33.1111 3.63285 33.1111 4.22222V6.44444H39.7778C40.3671 6.44444 40.9324 6.67857 41.3491 7.09532C41.7659 7.51207 42 8.0773 42 8.66667V33.1111C41.9999 33.7004 41.7657 34.2656 41.3489 34.6822L34.6822 41.3489C34.2656 41.7657 33.7004 41.9999 33.1111 42H4.22222C3.63285 42 3.06762 41.7659 2.65087 41.3491C2.23413 40.9324 2 40.3671 2 39.7778V19.7778C2 19.1884 2.23413 18.6232 2.65087 18.2064C3.06762 17.7897 3.63285 17.5556 4.22222 17.5556H33.1111C33.7005 17.5556 34.2657 17.7897 34.6825 18.2064C35.0992 18.6232 35.3333 19.1884 35.3333 19.7778C35.3333 20.3671 35.0992 20.9324 34.6825 21.3491C34.2657 21.7659 33.7005 22 33.1111 22H6.44444V37.5556H32.1911L37.5556 32.1911V10.8889H33.1111V13.1111C33.1111 13.7005 32.877 14.2657 32.4602 14.6825C32.0435 15.0992 31.4783 15.3333 30.8889 15.3333C30.2995 15.3333 29.7343 15.0992 29.3175 14.6825C28.9008 14.2657 28.6667 13.7005 28.6667 13.1111V10.8889Z" fill="#38B863" stroke="white" stroke-width="3.2"/>
</svg>
