<svg width="36" height="44" viewBox="0 0 36 44" fill="none" xmlns="http://www.w3.org/2000/svg">
<path d="M29.9991 16.8275L19.4134 27.4131C19.0384 27.7881 18.5298 27.9987 17.9995 27.9987C17.4691 27.9987 16.9605 27.7881 16.5855 27.4131L10.5857 21.4133C10.2214 21.0361 10.0198 20.531 10.0244 20.0066C10.0289 19.4822 10.2393 18.9806 10.6101 18.6098C10.9809 18.239 11.4825 18.0287 12.0069 18.0241C12.5312 18.0196 13.0364 18.2211 13.4136 18.5854L17.9995 23.1713L30.585 10.5857C31.845 9.32575 33.9989 10.2177 33.9989 11.9997V27.3571C33.9983 29.1197 33.5319 30.8508 32.6469 32.3751C31.7618 33.8994 30.4896 35.1626 28.9591 36.0368L18.9914 41.7367C18.6893 41.9092 18.3474 42 17.9995 42C17.6515 42 17.3096 41.9092 17.0075 41.7367L7.03783 36.0368C5.50801 35.1625 4.23638 33.8995 3.3517 32.3756C2.46703 30.8518 2.00072 29.1212 2 27.3591V5.99986C1.99976 5.56517 2.14115 5.14223 2.40278 4.79508C2.66441 4.44793 3.03201 4.19547 3.44995 4.07593C8.17915 2.70837 13.0765 2.00961 17.9995 2C22.8533 2 27.7051 2.69398 32.549 4.07593C33.0592 4.22179 33.4906 4.56438 33.7483 5.02833C34.006 5.49228 34.0688 6.03959 33.9229 6.54985C33.7771 7.06011 33.4345 7.49152 32.9705 7.74919C32.5066 8.00685 31.9593 8.06966 31.449 7.9238C27.0776 6.65785 22.5505 6.01025 17.9995 5.99986C14.0036 5.99986 10.0037 6.50985 5.99987 7.52981V27.3571C6.00021 28.4147 6.28007 29.4534 6.8111 30.3679C7.34214 31.2825 8.10547 32.0404 9.02376 32.565L17.9995 37.6948L26.9752 32.565C27.8932 32.0406 28.6563 31.283 29.1873 30.3688C29.7183 29.4546 29.9984 28.4164 29.9991 27.3591V16.8275Z" fill="#38B863" stroke="white" stroke-width="2.5"/>
</svg>
