<svg width="57" height="70" viewBox="0 0 57 70" fill="none" xmlns="http://www.w3.org/2000/svg">
<path d="M29.138 33.7909L14.1468 12.8033C18.156 11.8568 23.319 11 28.5 11C35.1098 11 41.4971 12.3953 45.5 13.5805V17.4289L29.138 33.7909Z" fill="url(#paint0_linear)" stroke="white" stroke-width="10"/>
<path d="M47.7985 26.724L30.8615 43.661C30.2614 44.2609 29.4476 44.5979 28.5991 44.5979C27.7506 44.5979 26.9369 44.2609 26.3368 43.661L16.7371 34.0613C16.1542 33.4578 15.8317 32.6495 15.839 31.8105C15.8463 30.9715 16.1828 30.169 16.7761 29.5757C17.3694 28.9824 18.172 28.6459 19.011 28.6386C19.85 28.6313 20.6583 28.9538 21.2618 29.5367L28.5991 36.8741L48.736 16.7371C50.752 14.7212 54.1983 16.1484 54.1983 18.9995V43.5714C54.1974 46.3916 53.451 49.1613 52.035 51.6002C50.6189 54.039 48.5833 56.0602 46.1345 57.459L30.1863 66.5786C29.7029 66.8548 29.1558 67 28.5991 67C28.0424 67 27.4954 66.8548 27.012 66.5786L11.0605 57.459C8.61281 56.06 6.5782 54.0392 5.16272 51.601C3.74724 49.1628 3.00115 46.3939 3 43.5746V9.39978C2.99961 8.70427 3.22585 8.02757 3.64445 7.47212C4.06305 6.91668 4.65122 6.51275 5.31992 6.32149C12.8866 4.13339 20.7224 3.01538 28.5991 3C36.3653 3 44.1282 4.11036 51.8783 6.32149C52.6948 6.55487 53.385 7.10301 53.7973 7.84533C54.2096 8.58765 54.3101 9.46334 54.0767 10.2798C53.8433 11.0962 53.2951 11.7864 52.5528 12.1987C51.8105 12.611 50.9348 12.7115 50.1184 12.4781C43.1242 10.4526 35.8807 9.4164 28.5991 9.39978C22.2057 9.39978 15.806 10.2158 9.39978 11.8477V43.5714C9.40033 45.2635 9.84811 46.9254 10.6978 48.3887C11.5474 49.852 12.7688 51.0647 14.238 51.9039L28.5991 60.1117L42.9602 51.9039C44.429 51.0649 45.6501 49.8527 46.4997 48.3901C47.3493 46.9274 47.7974 45.2662 47.7985 43.5746V26.724Z" fill="#38B863" stroke="white" stroke-width="4.5"/>
<defs>
<linearGradient id="paint0_linear" x1="28.25" y1="6" x2="28.25" y2="41.5" gradientUnits="userSpaceOnUse">
<stop offset="0.265625" stop-color="#A2FFC7"/>
<stop offset="0.645833" stop-color="#E1FDEE"/>
</linearGradient>
</defs>
</svg>
