<svg width="44" height="44" viewBox="0 0 44 44" fill="none" xmlns="http://www.w3.org/2000/svg">
<path d="M26.9289 26.8269C26.8031 26.4236 26.8083 25.9908 26.9437 25.5907C27.0792 25.1905 27.3379 24.8435 27.6827 24.5994L30.842 22.3639C31.2749 22.0623 31.8095 21.944 32.3293 22.0348C32.849 22.1256 33.3118 22.4182 33.6168 22.8487C33.9218 23.2793 34.0442 23.813 33.9574 24.3334C33.8707 24.8538 33.5817 25.3189 33.1535 25.6272L31.1799 27.0249L35.0311 39.3981C35.6109 41.2597 33.4514 42.7654 31.9038 41.5776L22 33.9773L12.0962 41.5776C10.5466 42.7654 8.38905 41.2597 8.96892 39.3981L12.836 26.9749L2.7943 19.3386C1.26664 18.1789 2.09046 15.7434 4.00803 15.7474L16.2973 15.7774L20.0884 3.41418C20.6663 1.52861 23.3337 1.52861 23.9116 3.41418L27.7027 15.7774L39.992 15.7474C40.5223 15.7464 41.0313 15.956 41.407 16.3302C41.7828 16.7045 41.9945 17.2127 41.9955 17.743C41.9966 18.2733 41.7869 18.7823 41.4127 19.158C41.0384 19.5338 40.5303 19.7455 40 19.7465L26.231 19.7785C25.8024 19.7793 25.3848 19.6424 25.0399 19.3878C24.695 19.1333 24.4411 18.7747 24.3155 18.3648L22 10.8185L19.6845 18.3648C19.5589 18.7747 19.3049 19.1333 18.9601 19.3878C18.6152 19.6424 18.1976 19.7793 17.7689 19.7785L9.95469 19.7605L16.3733 24.6394C16.7002 24.8882 16.9426 25.2316 17.0675 25.623C17.1923 26.0144 17.1936 26.4348 17.0711 26.8269L14.6596 34.5692L20.7823 29.8703C21.1316 29.6021 21.5596 29.4567 22 29.4567C22.4404 29.4567 22.8684 29.6021 23.2177 29.8703L29.3403 34.5692L26.9289 26.8269Z" fill="#38B863" stroke="white" stroke-width="2.6"/>
</svg>
