<svg width="50" height="50" viewBox="0 0 50 50" fill="none" xmlns="http://www.w3.org/2000/svg">
<path d="M17.4441 43.975L16.6847 45.4944H18.3833H36.1C36.5582 45.4944 36.9977 45.6765 37.3217 46.0005C37.6457 46.3245 37.8278 46.764 37.8278 47.2222C37.8278 47.6805 37.6457 48.1199 37.3217 48.4439C36.9977 48.768 36.5582 48.95 36.1 48.95H13.8895C13.595 48.9498 13.3056 48.8745 13.0485 48.731C12.7914 48.5876 12.5752 48.3808 12.4205 48.1304L11.5272 48.6822L12.4205 48.1303C12.2658 47.8799 12.1776 47.5941 12.1643 47.3C12.1511 47.0059 12.2132 46.7133 12.3448 46.45C12.3448 46.45 12.3448 46.4499 12.3448 46.4499L15.8892 39.3583L16.6486 37.8389H14.95H2.77778C2.31954 37.8389 1.88007 37.6569 1.55605 37.3328C1.23203 37.0088 1.05 36.5693 1.05 36.1111V2.77778C1.05 2.31954 1.23203 1.88008 1.55605 1.55605C1.88008 1.23203 2.31954 1.05 2.77778 1.05H47.2222C47.6805 1.05 48.1199 1.23203 48.4439 1.55605C48.768 1.88007 48.95 2.31954 48.95 2.77778V36.1111C48.95 36.5693 48.768 37.0088 48.4439 37.3328C48.1199 37.6569 47.6805 37.8389 47.2222 37.8389H30.5556C30.0973 37.8389 29.6579 37.6569 29.3338 37.3328C29.0098 37.0088 28.8278 36.5693 28.8278 36.1111C28.8278 35.6529 29.0098 35.2134 29.3338 34.8894C29.6579 34.5654 30.0973 34.3833 30.5556 34.3833H44.4444H45.4944V33.3333V5.55556V4.50556H44.4444H5.55556H4.50556V5.55556V33.3333V34.3833H5.55556H19.4439C19.7383 34.3835 20.0278 34.4589 20.2848 34.6023C20.5419 34.7458 20.7581 34.9525 20.9128 35.203C21.0676 35.4534 21.1557 35.7393 21.169 36.0334C21.1822 36.3274 21.1201 36.62 20.9886 36.8834C20.9885 36.8834 20.9885 36.8834 20.9885 36.8834L17.4441 43.975Z" fill="#38B863" stroke="white" stroke-width="2.1"/>
</svg>
