<svg width="76" height="75" viewBox="0 0 76 75" fill="none" xmlns="http://www.w3.org/2000/svg">
<path d="M8.5 52.5L8.5 42.5L55.5 42.5V52.5L8.5 52.5Z" fill="url(#paint0_linear)" stroke="white" stroke-width="7"/>
<path d="M22.3678 67.3077L21.4276 69.1889H23.5307H46.208C46.8062 69.1889 47.3799 69.4265 47.8029 69.8495C48.2259 70.2725 48.4636 70.8462 48.4636 71.4444C48.4636 72.0427 48.2259 72.6164 47.8029 73.0394C47.3799 73.4624 46.8062 73.7 46.208 73.7H17.7785C17.3941 73.6998 17.0162 73.6014 16.6806 73.4141C16.345 73.2269 16.0628 72.9569 15.8608 72.63C15.6588 72.303 15.5437 71.9299 15.5264 71.5459C15.5091 71.162 15.5902 70.7801 15.762 70.4363C15.762 70.4363 15.762 70.4362 15.762 70.4362L20.2988 61.359L21.2391 59.4778H19.136H3.55556C2.95734 59.4778 2.38363 59.2401 1.96064 58.8171C1.53764 58.3941 1.3 57.8204 1.3 57.2222V14.5556C1.3 13.9573 1.53764 13.3836 1.96064 12.9606C2.38364 12.5376 2.95734 12.3 3.55556 12.3H60.4444C61.0427 12.3 61.6164 12.5376 62.0394 12.9606C62.4624 13.3836 62.7 13.9573 62.7 14.5556V57.2222C62.7 57.8204 62.4624 58.3941 62.0394 58.8171C61.6164 59.2401 61.0427 59.4778 60.4444 59.4778H39.1111C38.5129 59.4778 37.9392 59.2401 37.5162 58.8171C37.0932 58.3941 36.8556 57.8204 36.8556 57.2222C36.8556 56.624 37.0932 56.0503 37.5162 55.6273C37.9392 55.2043 38.5129 54.9667 39.1111 54.9667H56.8889H58.1889V53.6667V18.1111V16.8111H56.8889H7.11111H5.81111V18.1111V53.6667V54.9667H7.11111H24.8882C25.2725 54.9669 25.6504 55.0653 25.986 55.2525C26.3217 55.4398 26.6039 55.7097 26.8059 56.0367C27.0079 56.3636 27.123 56.7368 27.1403 57.1207C27.1576 57.5047 27.0765 57.8867 26.9047 58.2305L22.3678 67.3077Z" fill="#38B863" stroke="white" stroke-width="2.6"/>
<circle cx="61" cy="15" r="15" fill="#38B863"/>
<path d="M57.84 10.32V12.7C58.876 11.888 60.052 11.51 61.004 11.51C61.732 11.51 62.25 11.79 62.25 12.364C62.25 13.092 61.522 13.358 60.64 13.876C59.282 14.674 57.532 15.57 57.532 17.866V19H64.91V16.83H60.5C60.5 16.578 61.298 16.13 62.32 15.514C63.524 14.786 64.84 13.834 64.84 12.224C64.84 10.11 63.146 9.27 61.242 9.27C60.024 9.27 58.848 9.606 57.84 10.32Z" fill="white"/>
<defs>
<linearGradient id="paint0_linear" x1="32" y1="39" x2="32" y2="56" gradientUnits="userSpaceOnUse">
<stop offset="0.265625" stop-color="#A2FFC7"/>
<stop offset="0.645833" stop-color="#E1FDEE"/>
</linearGradient>
</defs>
</svg>
