<svg width="20" height="22" viewBox="0 0 20 22" fill="none" xmlns="http://www.w3.org/2000/svg">
<path d="M17.7149 2.05344C17.1927 1.57339 15.0788 0.0363865 10.3668 0.0153317C10.3668 0.0153317 4.81249 -0.321546 2.10484 2.16292C0.597317 3.67045 0.066735 5.87279 0.0119924 8.60991C-0.0427502 11.3428 -0.114337 16.4676 4.82513 17.8572H4.82934L4.82513 19.9753C4.82513 19.9753 4.79565 20.8344 5.35992 21.007C6.0421 21.2176 6.44635 20.5648 7.09905 19.8616C7.45698 19.4742 7.94966 18.9099 8.32444 18.4762C11.7016 18.7583 14.2998 18.1099 14.5946 18.013C15.2767 17.7898 19.1382 17.2971 19.7656 12.1724C20.4141 6.90026 19.4498 3.56097 17.7149 2.05344ZM18.2876 11.8018C17.757 16.0802 14.6283 16.3497 14.0514 16.535C13.8071 16.615 11.5248 17.1834 8.6529 16.9939C8.6529 16.9939 6.51372 19.5753 5.84839 20.2448C5.74312 20.3501 5.621 20.3922 5.54099 20.3711C5.4273 20.3417 5.39361 20.2069 5.39782 20.009C5.39782 19.7227 5.41466 16.4844 5.41466 16.4844C5.41045 16.4844 5.41045 16.4844 5.41466 16.4844C1.23317 15.3264 1.47741 10.9638 1.52373 8.6815C1.57005 6.39916 1.99957 4.52528 3.27549 3.2662C5.56205 1.1944 10.2825 1.5018 10.2825 1.5018C14.2661 1.51865 16.1737 2.71877 16.6158 3.11881C18.0855 4.3821 18.835 7.39295 18.2876 11.8018Z" fill="#199568"/>
<path d="M12.3067 8.76082C12.1677 8.76082 12.0498 8.65134 12.0414 8.50816C11.9951 7.60281 11.5698 7.16065 10.7023 7.11433C10.5549 7.10591 10.4412 6.97958 10.4497 6.8322C10.4581 6.68482 10.5844 6.57112 10.7318 6.57954C11.8772 6.64271 12.5172 7.29962 12.5762 8.47869C12.5846 8.62607 12.4709 8.7524 12.3235 8.75661C12.3151 8.76082 12.3109 8.76082 12.3067 8.76082Z" fill="#199568"/>
<path d="M13.6735 9.21594H13.6693C13.5219 9.21173 13.404 9.08961 13.4082 8.94223C13.4293 8.03266 13.1682 7.29574 12.6123 6.68936C12.0607 6.08298 11.2985 5.75453 10.2921 5.68294C10.1447 5.67031 10.0352 5.54398 10.0479 5.3966C10.0605 5.24921 10.1868 5.13973 10.3342 5.15236C11.4712 5.23658 12.3681 5.63241 13.0082 6.33143C13.6525 7.03466 13.9641 7.91475 13.943 8.95486C13.9388 9.10225 13.8167 9.21594 13.6735 9.21594Z" fill="#199568"/>
<path d="M15.0695 9.76332C14.9221 9.76332 14.8042 9.64542 14.8042 9.49803C14.7916 7.86839 14.3242 6.62615 13.3725 5.69553C12.4335 4.77754 11.2418 4.31012 9.83951 4.29749C9.69213 4.29749 9.57422 4.17537 9.57422 4.02799C9.57422 3.8806 9.69634 3.7627 9.83951 3.7627C11.3849 3.77533 12.6988 4.29328 13.7389 5.31233C14.7832 6.33139 15.318 7.73785 15.3348 9.48961C15.339 9.64121 15.2211 9.76332 15.0695 9.76332C15.0737 9.76332 15.0737 9.76332 15.0695 9.76332Z" fill="#199568"/>
<path d="M10.7657 12.0587C10.7657 12.0587 11.1405 12.0924 11.3426 11.8439L11.7342 11.3512C11.9237 11.107 12.3827 10.9512 12.8291 11.1996C13.0775 11.3386 13.5281 11.6165 13.806 11.8229C14.105 12.0418 14.7114 12.5471 14.7156 12.5514C15.0062 12.7956 15.0735 13.1535 14.8756 13.5367C14.8756 13.5367 14.8756 13.5409 14.8756 13.5451C14.6735 13.9031 14.3998 14.24 14.0587 14.5516C14.0545 14.5516 14.0545 14.5558 14.0503 14.5558C13.7681 14.7916 13.4902 14.9263 13.2207 14.9558C13.187 14.9642 13.1491 14.9642 13.0986 14.9642C12.9807 14.9642 12.8628 14.9474 12.7449 14.9095L12.7365 14.8969C12.3154 14.779 11.6163 14.4842 10.4541 13.8399C9.69614 13.423 9.06871 12.9977 8.53391 12.5724C8.25178 12.3492 7.96543 12.1008 7.67066 11.806C7.66224 11.7976 7.64961 11.785 7.64119 11.7765C7.63277 11.7681 7.62013 11.7555 7.61171 11.7471C7.60329 11.7386 7.59066 11.726 7.58223 11.7176C7.57381 11.7092 7.56118 11.6965 7.55276 11.6881C7.2622 11.3933 7.00954 11.107 6.78636 10.8249C6.36105 10.2943 5.93575 9.66263 5.51886 8.90466C4.87458 7.73822 4.57981 7.0392 4.46191 6.62232L4.44927 6.61389C4.41138 6.49599 4.39453 6.37808 4.39453 6.26017C4.39453 6.20964 4.39453 6.17174 4.40295 6.13805C4.43664 5.86434 4.57139 5.59063 4.80299 5.30849C4.80299 5.30428 4.80721 5.30428 4.80721 5.30007C5.11882 4.95477 5.45569 4.68527 5.81363 4.48314C5.81363 4.48314 5.81784 4.48314 5.82205 4.48314C6.20104 4.28523 6.55897 4.3526 6.80742 4.64316C6.80742 4.64316 7.31694 5.25375 7.53591 5.55273C7.74225 5.83486 8.02017 6.28123 8.15914 6.52967C8.40758 6.97604 8.25178 7.43503 8.00754 7.62453L7.51486 8.01615C7.26641 8.21827 7.3001 8.59305 7.3001 8.59305C7.3001 8.59305 8.0286 11.3639 10.7657 12.0587Z" fill="#199568"/>
</svg>
