<svg width="23" height="13" viewBox="0 0 23 13" fill="none" xmlns="http://www.w3.org/2000/svg">
<path fill-rule="evenodd" clip-rule="evenodd" d="M21.874 0.880007C22.0262 0.372798 21.874 0 21.1499 0H18.7558C18.147 0 17.8666 0.322008 17.7144 0.677191C17.7144 0.677191 16.4968 3.64469 14.772 5.57229C14.214 6.13029 13.9604 6.30763 13.656 6.30763C13.5038 6.30763 13.2836 6.13029 13.2836 5.62308V0.880007C13.2836 0.271219 13.1069 0 12.5995 0H8.83737C8.45705 0 8.22824 0.282505 8.22824 0.550304C8.22824 1.12746 9.09047 1.2605 9.17939 2.88371V6.40938C9.17939 7.18233 9.03985 7.32256 8.73545 7.32256C7.92385 7.32256 5.94973 4.34155 4.77867 0.930796C4.54918 0.267799 4.319 0 3.70714 0H1.31303C0.628994 0 0.492188 0.322008 0.492188 0.677191C0.492188 1.31129 1.30396 4.45647 4.27146 8.61606C6.25002 11.4565 9.03711 12.9966 11.5735 12.9966C13.0955 12.9966 13.2836 12.6546 13.2836 12.0655V9.91846C13.2836 9.23443 13.4277 9.09796 13.9095 9.09796C14.2648 9.09796 14.8734 9.27547 16.294 10.6451C17.9172 12.2681 18.1847 12.9966 19.0979 12.9966H21.492C22.176 12.9966 22.518 12.6546 22.3207 11.9796C22.1049 11.3069 21.3298 10.3311 20.3014 9.17406C19.7434 8.51448 18.9063 7.80429 18.6529 7.44928C18.2977 6.99268 18.3991 6.78987 18.6529 6.38424C18.6529 6.38424 21.5696 2.27526 21.874 0.880178V0.880007Z" fill="#199568"/>
</svg>
