<svg width="22" height="21" viewBox="0 0 22 21" fill="none" xmlns="http://www.w3.org/2000/svg">
<path d="M18.5775 3.02826C16.6708 1.0655 14.0351 0 11.3433 0C5.62329 0 1.02483 4.65454 1.08091 10.3185C1.08091 12.113 1.58562 13.8515 2.4268 15.4217L0.96875 20.7492L6.4084 19.3472C7.92253 20.1884 9.60489 20.5809 11.2873 20.5809C16.9512 20.5809 21.5497 15.9264 21.5497 10.2624C21.5497 7.51457 20.4842 4.93494 18.5775 3.02826ZM11.3433 18.8425C9.82921 18.8425 8.31508 18.4499 7.02527 17.6648L6.68879 17.4966L3.43622 18.3378L4.2774 15.1413L4.05309 14.8048C1.58562 10.8232 2.76327 5.55181 6.80095 3.08434C10.8386 0.616867 16.054 1.79452 18.5214 5.8322C20.9889 9.86988 19.8112 15.0852 15.7736 17.5527C14.4838 18.3939 12.9135 18.8425 11.3433 18.8425ZM16.2783 12.6177L15.6614 12.3373C15.6614 12.3373 14.7641 11.9448 14.2034 11.6644C14.1473 11.6644 14.0912 11.6083 14.0351 11.6083C13.8669 11.6083 13.7547 11.6644 13.6426 11.7205C13.6426 11.7205 13.5865 11.7766 12.8014 12.6738C12.7453 12.786 12.6332 12.8421 12.521 12.8421H12.4649C12.4088 12.8421 12.2967 12.786 12.2406 12.7299L11.9602 12.6177C11.3433 12.3373 10.7825 12.0009 10.3339 11.5522C10.2218 11.4401 10.0535 11.3279 9.94137 11.2158C9.54881 10.8232 9.15626 10.3746 8.87587 9.86988L8.81979 9.75772C8.76371 9.70164 8.76371 9.64556 8.70763 9.5334C8.70763 9.42125 8.70763 9.30909 8.76371 9.25301C8.76371 9.25301 8.98803 8.97262 9.15626 8.80438C9.26842 8.69222 9.3245 8.52399 9.43666 8.41183C9.54881 8.24359 9.60489 8.01928 9.54881 7.85104C9.49273 7.57064 8.81979 6.05652 8.65155 5.72004C8.53939 5.55181 8.42724 5.49573 8.259 5.43965H8.09076C7.97861 5.43965 7.81037 5.43965 7.64213 5.43965C7.52998 5.43965 7.41782 5.49573 7.30566 5.49573L7.24958 5.55181C7.13742 5.60788 7.02527 5.72004 6.91311 5.77612C6.80095 5.88828 6.74487 6.00044 6.63271 6.11259C6.24016 6.6173 6.01585 7.23417 6.01585 7.85104C6.01585 8.29967 6.128 8.7483 6.29624 9.14085L6.35232 9.30909C6.85703 10.3746 7.52998 11.3279 8.42724 12.1691L8.65155 12.3934C8.81979 12.5617 8.98803 12.6738 9.10018 12.8421C10.2778 13.8515 11.6237 14.5805 13.1379 14.9731C13.3061 15.0291 13.5304 15.0291 13.6986 15.0852C13.8669 15.0852 14.0912 15.0852 14.2594 15.0852C14.5398 15.0852 14.8763 14.9731 15.1006 14.8609C15.2689 14.7487 15.381 14.7487 15.4932 14.6366L15.6053 14.5244C15.7175 14.4123 15.8296 14.3562 15.9418 14.244C16.054 14.1319 16.1661 14.0197 16.2222 13.9076C16.3344 13.6832 16.3904 13.4028 16.4465 13.1225C16.4465 13.0103 16.4465 12.8421 16.4465 12.7299C16.4465 12.7299 16.3904 12.6738 16.2783 12.6177Z" fill="#199568"/>
</svg>
