<svg width="59" height="51" viewBox="0 0 59 51" fill="none" xmlns="http://www.w3.org/2000/svg">
<path d="M36.8056 47.3056H37.5556V46.5556V31C37.5556 30.6095 37.7107 30.2351 37.9868 29.959C38.2629 29.6829 38.6373 29.5278 39.0278 29.5278C39.4182 29.5278 39.7927 29.6829 40.0688 29.959C40.3449 30.2351 40.5 30.6095 40.5 31V48.7778C40.5 49.1682 40.3449 49.5427 40.0688 49.8188C39.7927 50.0949 39.4182 50.25 39.0278 50.25H2.22222C1.83176 50.25 1.4573 50.0949 1.1812 49.8188C0.905109 49.5427 0.75 49.1682 0.75 48.7778V13.2222C0.75 12.8318 0.905109 12.4573 1.1812 12.1812C1.4573 11.9051 1.83176 11.75 2.22222 11.75H28.8889C29.2793 11.75 29.6538 11.9051 29.9299 12.1812C30.206 12.4573 30.3611 12.8318 30.3611 13.2222V39.8889C30.3611 40.2793 30.206 40.6538 29.9299 40.9299C29.6538 41.206 29.2793 41.3611 28.8889 41.3611C28.4984 41.3611 28.124 41.206 27.8479 40.9299C27.5718 40.6538 27.4167 40.2793 27.4167 39.8889V15.4444V14.6944H26.6667H4.44444H3.69444V15.4444V46.5556V47.3056H4.44444H36.8056ZM11.1111 23.5833C10.7207 23.5833 10.3462 23.4282 10.0701 23.1521C9.794 22.876 9.63889 22.5016 9.63889 22.1111C9.63889 21.7207 9.794 21.3462 10.0701 21.0701C10.3462 20.794 10.7207 20.6389 11.1111 20.6389H20C20.3905 20.6389 20.7649 20.794 21.041 21.0701C21.3171 21.3462 21.4722 21.7207 21.4722 22.1111C21.4722 22.5016 21.3171 22.876 21.041 23.1521C20.7649 23.4282 20.3905 23.5833 20 23.5833H11.1111ZM11.1111 30.25C10.7207 30.25 10.3462 30.0949 10.0701 29.8188C9.794 29.5427 9.63889 29.1682 9.63889 28.7778C9.63889 28.3873 9.794 28.0129 10.0701 27.7368C10.3462 27.4607 10.7207 27.3056 11.1111 27.3056H20C20.3905 27.3056 20.7649 27.4607 21.041 27.7368C21.3171 28.0129 21.4722 28.3873 21.4722 28.7778C21.4722 29.1682 21.3171 29.5427 21.041 29.8188C20.7649 30.0949 20.3905 30.25 20 30.25H11.1111ZM11.1111 36.9167C10.7207 36.9167 10.3462 36.7616 10.0701 36.4855C9.794 36.2094 9.63889 35.8349 9.63889 35.4444C9.63889 35.054 9.794 34.6795 10.0701 34.4034C10.3462 34.1273 10.7207 33.9722 11.1111 33.9722H15.5556C15.946 33.9722 16.3205 34.1273 16.5966 34.4034C16.8727 34.6795 17.0278 35.054 17.0278 35.4444C17.0278 35.8349 16.8727 36.2094 16.5966 36.4855C16.3205 36.7616 15.946 36.9167 15.5556 36.9167H11.1111Z" fill="#38B863" stroke="white" stroke-width="1.5"/>
<circle cx="44" cy="15" r="15" fill="#38B863"/>
<path d="M47.532 11.916C47.532 10.082 45.964 9.27 43.962 9.27C42.814 9.27 41.666 9.564 40.812 10.054V12.434C41.75 11.804 42.828 11.51 43.612 11.51C44.578 11.51 45.082 11.79 45.082 12.322C45.082 12.868 44.55 13.05 43.864 13.036L42.548 13.022L42.534 15.192H44.158C44.942 15.192 45.46 15.416 45.46 15.976C45.46 16.676 44.648 16.956 43.724 16.97C42.73 16.984 41.792 16.844 40.644 16.186V18.566C41.806 19.028 42.786 19.21 43.934 19.21C45.936 19.21 47.924 18.482 47.924 16.396C47.924 15.024 47.112 14.254 46.062 13.932C47 13.61 47.532 12.91 47.532 11.916Z" fill="white"/>
</svg>
