<svg width="76" height="75" viewBox="0 0 76 75" fill="none" xmlns="http://www.w3.org/2000/svg">
<path d="M49 15L60 15L60 68L49 68L49 15Z" fill="url(#paint0_linear)" stroke="white" stroke-width="6"/>
<path d="M58.8889 69.1389H60.1389V67.8889V43C60.1389 42.3885 60.3818 41.8021 60.8142 41.3697C61.2465 40.9374 61.833 40.6944 62.4444 40.6944C63.0559 40.6944 63.6423 40.9374 64.0747 41.3697C64.5071 41.8021 64.75 42.3885 64.75 43V71.4444C64.75 72.0559 64.5071 72.6423 64.0747 73.0747C63.6423 73.5071 63.0559 73.75 62.4444 73.75H3.55556C2.94408 73.75 2.35765 73.5071 1.92528 73.0747C1.49291 72.6423 1.25 72.0559 1.25 71.4444V14.5556C1.25 13.9441 1.49291 13.3577 1.92528 12.9253C2.35766 12.4929 2.94408 12.25 3.55556 12.25H46.2222C46.8337 12.25 47.4201 12.4929 47.8525 12.9253C48.2849 13.3577 48.5278 13.9441 48.5278 14.5556V57.2222C48.5278 57.8337 48.2849 58.4201 47.8525 58.8525C47.4201 59.2849 46.8337 59.5278 46.2222 59.5278C45.6107 59.5278 45.0243 59.2849 44.5919 58.8525C44.1596 58.4201 43.9167 57.8337 43.9167 57.2222V18.1111V16.8611H42.6667H7.11111H5.86111V18.1111V67.8889V69.1389H7.11111H58.8889ZM17.7778 31.0833C17.1663 31.0833 16.5799 30.8404 16.1475 30.4081C15.7151 29.9757 15.4722 29.3892 15.4722 28.7778C15.4722 28.1663 15.7151 27.5799 16.1475 27.1475C16.5799 26.7151 17.1663 26.4722 17.7778 26.4722H32C32.6115 26.4722 33.1979 26.7151 33.6303 27.1475C34.0627 27.5799 34.3056 28.1663 34.3056 28.7778C34.3056 29.3892 34.0627 29.9757 33.6303 30.4081C33.1979 30.8404 32.6115 31.0833 32 31.0833H17.7778ZM17.7778 41.75C17.1663 41.75 16.5799 41.5071 16.1475 41.0747C15.7151 40.6423 15.4722 40.0559 15.4722 39.4444C15.4722 38.833 15.7151 38.2465 16.1475 37.8142C16.5799 37.3818 17.1663 37.1389 17.7778 37.1389H32C32.6115 37.1389 33.1979 37.3818 33.6303 37.8142C34.0627 38.2465 34.3056 38.833 34.3056 39.4444C34.3056 40.0559 34.0627 40.6423 33.6303 41.0747C33.1979 41.5071 32.6115 41.75 32 41.75H17.7778ZM17.7778 52.4167C17.1663 52.4167 16.5799 52.1738 16.1475 51.7414C15.7151 51.309 15.4722 50.7226 15.4722 50.1111C15.4722 49.4996 15.7151 48.9132 16.1475 48.4808C16.5799 48.0485 17.1663 47.8056 17.7778 47.8056H24.8889C25.5004 47.8056 26.0868 48.0485 26.5192 48.4808C26.9515 48.9132 27.1944 49.4996 27.1944 50.1111C27.1944 50.7226 26.9515 51.309 26.5192 51.7414C26.0868 52.1738 25.5004 52.4167 24.8889 52.4167H17.7778Z" fill="#38B863" stroke="white" stroke-width="2.5"/>
<circle cx="61" cy="15" r="15" fill="#38B863"/>
<path d="M64.532 11.916C64.532 10.082 62.964 9.27 60.962 9.27C59.814 9.27 58.666 9.564 57.812 10.054V12.434C58.75 11.804 59.828 11.51 60.612 11.51C61.578 11.51 62.082 11.79 62.082 12.322C62.082 12.868 61.55 13.05 60.864 13.036L59.548 13.022L59.534 15.192H61.158C61.942 15.192 62.46 15.416 62.46 15.976C62.46 16.676 61.648 16.956 60.724 16.97C59.73 16.984 58.792 16.844 57.644 16.186V18.566C58.806 19.028 59.786 19.21 60.934 19.21C62.936 19.21 64.924 18.482 64.924 16.396C64.924 15.024 64.112 14.254 63.062 13.932C64 13.61 64.532 12.91 64.532 11.916Z" fill="white"/>
<defs>
<linearGradient id="paint0_linear" x1="63" y1="41.5" x2="46" y2="41.5" gradientUnits="userSpaceOnUse">
<stop offset="0.265625" stop-color="#A2FFC7"/>
<stop offset="0.645833" stop-color="#E1FDEE"/>
</linearGradient>
</defs>
</svg>
